<svg version="1.1" xmlns="http://www.w3.org/2000/svg" xmlns:xlink="http://www.w3.org/1999/xlink" width="268.51124" height="185.2461" viewBox="0,0,268.51124,185.2461"><defs><radialGradient cx="241.45836" cy="169.12501" r="7" gradientUnits="userSpaceOnUse" id="color-1"><stop offset="0" stop-color="#ff2e2e"/><stop offset="1" stop-color="#e80000"/></radialGradient></defs><g transform="translate(-211.2622,-84.37608)"><g data-paper-data="{&quot;isPaintingLayer&quot;:true}" fill="none" fill-rule="nonzero" stroke="none" stroke-width="none" stroke-linecap="none" stroke-linejoin="miter" stroke-miterlimit="10" stroke-dasharray="" stroke-dashoffset="0" font-family="none" font-weight="none" font-size="none" text-anchor="none" style="mix-blend-mode: normal"><path d="M237.35745,160.90632v67.29708l-12.04762,38.91879" data-paper-data="{&quot;origPos&quot;:null}" fill="none" stroke="#ff0000" stroke-width="5" stroke-linecap="round"/><path d="M238.16062,226.76665l12.04762,40.15873" fill="none" stroke="#ff0000" stroke-width="5" stroke-linecap="round"/><path d="M213.2622,138.01585c0,-13.9728 11.3272,-25.3 25.3,-25.3c13.9728,0 25.3,11.3272 25.3,25.3c0,13.9728 -11.3272,25.3 -25.3,25.3c-13.9728,0 -25.3,-11.3272 -25.3,-25.3z" data-paper-data="{&quot;origPos&quot;:null}" fill="#c3b200" stroke="#ff0000" stroke-width="4" stroke-linecap="butt"/><path d="M263.19313,191.80158c0,0 -13.41596,2.68156 -16.2424,-2.64267c-3.30006,-6.21641 -8.706,-19.92876 -8.706,-19.92876" data-paper-data="{&quot;origPos&quot;:null,&quot;index&quot;:null}" fill="none" stroke="#ff0000" stroke-width="4.5" stroke-linecap="round"/><path d="M241.21792,131.99238l-9.93573,-3.98468" data-paper-data="{&quot;origPos&quot;:null,&quot;origRot&quot;:0}" fill="none" stroke="#00ffe4" stroke-width="4.5" stroke-linecap="round"/><path d="M246.78219,131.74238l9.18573,-3.98468" data-paper-data="{&quot;origPos&quot;:null,&quot;origRot&quot;:0,&quot;index&quot;:null}" fill="none" stroke="#00ffe4" stroke-width="4.5" stroke-linecap="round"/><path d="M235.37505,152.34725l2.76785,-2.59722h11.45154l2.90561,2.5" data-paper-data="{&quot;origPos&quot;:null}" fill="none" stroke="#000000" stroke-width="2" stroke-linecap="round"/><g data-paper-data="{&quot;origPos&quot;:null,&quot;index&quot;:null}"><path d="M263.9167,194.75002c-2.14011,0 -3.875,-1.73489 -3.875,-3.875c0,-2.14011 1.73489,-3.875 3.875,-3.875c2.14011,0 3.875,1.73489 3.875,3.875c0,2.14011 -1.73489,3.875 -3.875,3.875z" fill="#ff0000" stroke="none" stroke-width="0" stroke-linecap="butt"/><path d="M267.33335,182.62502l-0.5,8.33334" data-paper-data="{&quot;origPos&quot;:null}" fill="none" stroke="#ff0000" stroke-width="2" stroke-linecap="round"/><path d="M265.01581,190.298l-0.19821,-8.34597" data-paper-data="{&quot;origPos&quot;:null,&quot;origRot&quot;:0}" fill="none" stroke="#ff0000" stroke-width="2" stroke-linecap="round"/><path d="M262.11111,181.811l0.94451,8.29472" data-paper-data="{&quot;origPos&quot;:null,&quot;origRot&quot;:0}" fill="none" stroke="#ff0000" stroke-width="2" stroke-linecap="round"/><path d="M259.65938,183.02013l1.51462,8.20978" data-paper-data="{&quot;origPos&quot;:null,&quot;origRot&quot;:0}" fill="none" stroke="#ff0000" stroke-width="2" stroke-linecap="round"/><path d="M261.50002,192.62502l-3.83333,-3.83334" data-paper-data="{&quot;origPos&quot;:null}" fill="none" stroke="#ff0000" stroke-width="2" stroke-linecap="round"/><path d="M263.50834,193.20004c-1.37151,0 -2.48334,-1.11182 -2.48334,-2.48333c0,-1.37151 1.11183,-2.48334 2.48334,-2.48334c1.37151,0 2.48333,1.11183 2.48333,2.48334c0,1.37151 -1.11182,2.48333 -2.48333,2.48333z" data-paper-data="{&quot;origPos&quot;:null}" fill="#00ffe4" stroke="none" stroke-width="0" stroke-linecap="butt"/></g><path d="M230.40005,172.86668c0,-3.86599 3.13401,-7 7,-7c3.86599,0 7,3.13401 7,7c0,3.86599 -3.13401,7 -7,7c-3.86599,0 -7,-3.13401 -7,-7z" data-paper-data="{&quot;origPos&quot;:null}" fill="url(#color-1)" stroke="none" stroke-width="0" stroke-linecap="butt"/><path d="M243.10586,193.80157c0,0 -19.18977,-1.14835 -16.59101,-6.04368c3.52775,-6.6453 6.20609,-13.02775 6.20609,-13.02775" data-paper-data="{&quot;origPos&quot;:null}" fill="none" stroke="#e80000" stroke-width="4.5" stroke-linecap="round"/><path d="M234.13338,172.4667c0,-1.87777 1.52223,-3.4 3.4,-3.4c1.87777,0 3.4,1.52223 3.4,3.4c0,1.87777 -1.52223,3.4 -3.4,3.4c-1.87777,0 -3.4,-1.52223 -3.4,-3.4z" data-paper-data="{&quot;origPos&quot;:null}" fill="#00ffe4" stroke="none" stroke-width="0" stroke-linecap="butt"/><g data-paper-data="{&quot;origPos&quot;:null}"><path d="M239.2917,184.95835l0.5,8.33334" data-paper-data="{&quot;origPos&quot;:null}" fill="none" stroke="#e80000" stroke-width="2" stroke-linecap="round"/><g><path d="M238.83337,193.20836c0,-2.14011 1.73489,-3.875 3.875,-3.875c2.14011,0 3.875,1.73489 3.875,3.875c0,2.14011 -1.73489,3.875 -3.875,3.875c-2.14011,0 -3.875,-1.73489 -3.875,-3.875z" data-paper-data="{&quot;origPos&quot;:null}" fill="#e80000" stroke="none" stroke-width="0" stroke-linecap="butt"/><path d="M241.80747,184.28537l-0.19821,8.34597" data-paper-data="{&quot;origPos&quot;:null,&quot;origRot&quot;:0}" fill="none" stroke="#e80000" stroke-width="2" stroke-linecap="round"/><path d="M243.56944,192.43905l0.94451,-8.29472" data-paper-data="{&quot;origPos&quot;:null,&quot;origRot&quot;:0}" fill="none" stroke="#e80000" stroke-width="2" stroke-linecap="round"/><path d="M245.45106,193.56324l1.51462,-8.20977" data-paper-data="{&quot;origPos&quot;:null,&quot;origRot&quot;:0}" fill="none" stroke="#e80000" stroke-width="2" stroke-linecap="round"/><path d="M245.12503,194.95836l3.83334,-3.83334" data-paper-data="{&quot;origPos&quot;:null}" fill="none" stroke="#e80000" stroke-width="2" stroke-linecap="round"/><path d="M240.63338,193.05004c0,-1.37151 1.11182,-2.48333 2.48333,-2.48333c1.37151,0 2.48334,1.11182 2.48334,2.48333c0,1.37151 -1.11183,2.48334 -2.48334,2.48334c-1.37151,0 -2.48333,-1.11183 -2.48333,-2.48334z" data-paper-data="{&quot;origPos&quot;:null}" fill="#00ffe4" stroke="none" stroke-width="0" stroke-linecap="butt"/></g></g><text transform="translate(275.00001,140.5) scale(0.95834,0.95834)" font-size="40" xml:space="preserve" data-paper-data="{&quot;origPos&quot;:null}" fill="#fffe80" fill-rule="nonzero" stroke="#a59a00" stroke-width="2" stroke-linecap="butt" stroke-linejoin="miter" stroke-miterlimit="10" stroke-dasharray="" stroke-dashoffset="0" font-family="Sans Serif" font-weight="normal" text-anchor="start" style="mix-blend-mode: normal"><tspan x="0" dy="0">IRON MAN</tspan></text><text transform="translate(276,168) scale(0.5,0.5)" font-size="40" xml:space="preserve" data-paper-data="{&quot;origPos&quot;:null}" fill="#000000" fill-rule="nonzero" stroke="none" stroke-width="1" stroke-linecap="butt" stroke-linejoin="miter" stroke-miterlimit="10" stroke-dasharray="" stroke-dashoffset="0" font-family="Serif" font-weight="normal" text-anchor="start" style="mix-blend-mode: normal"><tspan x="0" dy="0">Marvel's Iron man shoots</tspan><tspan x="0" dy="46.150000000000006px">lasers out of his hands.</tspan><tspan x="0" dy="46.150000000000006px">And he gets even cooler</tspan><tspan x="0" dy="46.150000000000006px">when you realise he can</tspan><tspan x="0" dy="46.150000000000006px">fly!</tspan></text><text transform="translate(254.05903,101.23225) scale(0.39911,0.39911)" font-size="40" xml:space="preserve" data-paper-data="{&quot;origPos&quot;:null}" fill="#ca00ff" fill-rule="nonzero" stroke="#a59a00" stroke-width="0" stroke-linecap="butt" stroke-linejoin="miter" stroke-miterlimit="10" stroke-dasharray="" stroke-dashoffset="0" font-family="Sans Serif" font-weight="normal" text-anchor="start" style="mix-blend-mode: normal"><tspan x="0" dy="0">"Avengers: Endgame" Special</tspan></text></g></g></svg>