<svg version="1.1" xmlns="http://www.w3.org/2000/svg" xmlns:xlink="http://www.w3.org/1999/xlink" width="158.30843" height="183.99445" viewBox="0,0,158.30843,183.99445"><g transform="translate(-169.51469,-61.8777)"><g data-paper-data="{&quot;isPaintingLayer&quot;:true}" fill="none" fill-rule="nonzero" stroke="none" stroke-width="none" stroke-linecap="none" stroke-linejoin="miter" stroke-miterlimit="10" stroke-dasharray="" stroke-dashoffset="0" font-family="none" font-weight="none" font-size="none" text-anchor="none" style="mix-blend-mode: normal"><text transform="translate(169.72569,77.27997) scale(0.42198,0.42198)" font-size="40" xml:space="preserve" data-paper-data="{&quot;origPos&quot;:null}" fill="#ffe400" fill-rule="nonzero" stroke="#807300" stroke-width="1" stroke-linecap="butt" stroke-linejoin="miter" stroke-miterlimit="10" stroke-dasharray="" stroke-dashoffset="0" font-family="Serif" font-weight="normal" text-anchor="start" style="mix-blend-mode: normal"><tspan x="0" dy="0">MULTI-ROCKETEER</tspan></text><g><g data-paper-data="{&quot;origPos&quot;:null}" stroke="none" stroke-linecap="butt"><path d="M207.69514,144.66667v-27.35899h70.72314v27.35899z" data-paper-data="{&quot;origPos&quot;:null}" fill="#7c7c7c" stroke-width="0"/><path d="M206.73942,117.72858l22.93724,-5.05089h71.67885l-22.93723,5.05089z" fill="#9a9a9a" stroke-width="0"/><path d="M277.94042,144.6137v-27.359l23.89296,-4.62998v27.35899z" data-paper-data="{&quot;origPos&quot;:null}" fill="#666666" stroke-width="NaN"/></g><g data-paper-data="{&quot;origPos&quot;:null}" fill="none" stroke="#5a5a5a" stroke-width="2"><g data-paper-data="{&quot;origPos&quot;:null}"><path d="M273.50004,106.33334c0,-4.60237 2.98477,-8.33334 6.66667,-8.33334c3.6819,0 6.66667,3.73096 6.66667,8.33334c0,4.60237 -2.98477,8.33333 -6.66667,8.33333c-3.6819,0 -6.66667,-3.73095 -6.66667,-8.33333z" data-paper-data="{&quot;origPos&quot;:null}" stroke-linecap="butt"/><path d="M280.73812,98.33334v16" data-paper-data="{&quot;origPos&quot;:null}" stroke-linecap="round"/><path d="M286.6667,106.46h-13" data-paper-data="{&quot;origPos&quot;:null}" stroke-linecap="round"/></g><path d="M274.38892,112l-1.38095,4.2381" data-paper-data="{&quot;origPos&quot;:null}" stroke-linecap="round"/><path d="M286.05557,110.33334l1.47619,3.38095" data-paper-data="{&quot;origPos&quot;:null}" stroke-linecap="round"/></g><path d="M294.55161,126.33334c0,0 -0.86963,-1.98673 -1,-5.25c-0.10751,-2.69112 1,-5.5 1,-5.5l12,5.25z" data-paper-data="{&quot;origPos&quot;:null}" fill="#e5ac00" stroke="none" stroke-width="0" stroke-linecap="butt"/><path d="M294.55161,139.66667c0,0 -0.86963,-1.98674 -1,-5.25c-0.10751,-2.69112 1,-5.5 1,-5.5l12,5.25z" data-paper-data="{&quot;origPos&quot;:null}" fill="#e5ac00" stroke="none" stroke-width="0" stroke-linecap="butt"/><path d="M284.05161,128c0,0 -0.86963,-1.98673 -1,-5.25c-0.10751,-2.69112 1,-5.5 1,-5.5l12,5.25z" data-paper-data="{&quot;origPos&quot;:null}" fill="#ffc000" stroke="none" stroke-width="0" stroke-linecap="butt"/><path d="M284.05161,141.5c0,0 -0.86963,-1.98674 -1,-5.25c-0.10751,-2.69112 1,-5.5 1,-5.5l12,5.25z" data-paper-data="{&quot;origPos&quot;:null}" fill="#ffc000" stroke="none" stroke-width="0" stroke-linecap="butt"/><path d="M241.35741,137.90628v67.29708l-12.04762,38.91879" data-paper-data="{&quot;origPos&quot;:null}" fill="none" stroke="#000000" stroke-width="3.5" stroke-linecap="round"/><path d="M254.2082,243.92534l-12.04762,-40.15873" fill="none" stroke="#000000" stroke-width="3.5" stroke-linecap="round"/><path d="M217.26217,115.01581c0,-13.9728 11.3272,-25.3 25.3,-25.3c13.9728,0 25.3,11.3272 25.3,25.3c0,13.9728 -11.3272,25.3 -25.3,25.3c-13.9728,0 -25.3,-11.3272 -25.3,-25.3z" data-paper-data="{&quot;origPos&quot;:null}" fill="#d4d4d4" stroke="#000000" stroke-width="2.5" stroke-linecap="butt"/><path d="M250.47804,108.32534c0,-2.66149 2.15756,-4.81905 4.81905,-4.81905c2.66149,0 4.81905,2.15756 4.81905,4.81905c0,2.66149 -2.15756,4.81905 -4.81905,4.81905c-2.66149,0 -4.81905,-2.15756 -4.81905,-4.81905z" data-paper-data="{&quot;origPos&quot;:null}" fill="#000000" stroke="none" stroke-width="0" stroke-linecap="butt"/><path d="M249.73602,105.71171l8.38244,-5.13466" data-paper-data="{&quot;origPos&quot;:null,&quot;index&quot;:null,&quot;origRot&quot;:0}" fill="none" stroke="#000000" stroke-width="2.5" stroke-linecap="round"/><path d="M237.23247,109.01808c0,0 2.09623,-1.67831 3.43792,-1.68576c1.65367,-0.00918 4.23731,1.64313 4.23731,1.64313" data-paper-data="{&quot;origPos&quot;:null,&quot;origRot&quot;:0}" fill="none" stroke="#000000" stroke-width="2.5" stroke-linecap="round"/><path d="M231.35582,181.80153c0,0 1.48915,-15.67918 3.08234,-22.19437c1.80148,-7.36702 5.61607,-13.37706 5.61607,-13.37706" data-paper-data="{&quot;origPos&quot;:null}" fill="none" stroke="#000000" stroke-width="3.5" stroke-linecap="round"/><path d="M271.35978,154.20154c0,0 -10.1095,7.14099 -18.19775,7.92051c-9.80229,0.94472 -10.91733,-15.89195 -10.91733,-15.89195" data-paper-data="{&quot;origPos&quot;:null,&quot;index&quot;:null}" fill="none" stroke="#000000" stroke-width="3.5" stroke-linecap="round"/><path d="M267.10002,163.06667c0,0 -1.21947,-5.57284 -1.48794,-9.13974c-0.27789,-3.69199 0.08794,-9.46026 0.08794,-9.46026h9.2c0,0 -0.572,5.68632 -0.29805,9.32585c0.27242,3.61936 1.69806,9.27415 1.69806,9.27415z" data-paper-data="{&quot;origPos&quot;:null}" fill="#9a9a9a" stroke="none" stroke-width="0" stroke-linecap="butt"/></g></g></g></svg>