<svg version="1.1" xmlns="http://www.w3.org/2000/svg" xmlns:xlink="http://www.w3.org/1999/xlink" width="63.85392" height="184.27688" viewBox="0,0,63.85392,184.27688"><g transform="translate(-213.57304,-62.06232)"><g data-paper-data="{&quot;isPaintingLayer&quot;:true}" fill="none" fill-rule="nonzero" stroke="none" stroke-width="none" stroke-linecap="none" stroke-linejoin="miter" stroke-miterlimit="10" stroke-dasharray="" stroke-dashoffset="0" font-family="none" font-weight="none" font-size="none" text-anchor="none" style="mix-blend-mode: normal"><path d="M254.99695,171.93524c0,0 -5.38545,1.20803 -8.0431,-3.79825c-2.92254,-5.50525 -6.48864,-17.60652 -6.48864,-17.60652" data-paper-data="{&quot;origPos&quot;:null,&quot;index&quot;:null}" fill="none" stroke="#000000" stroke-width="3.5" stroke-linecap="round"/><path d="M239.57792,138.37333v67.29708l-12.04762,38.91879" data-paper-data="{&quot;origPos&quot;:null}" fill="none" stroke="#000000" stroke-width="3.5" stroke-linecap="round"/><path d="M251.92871,243.89238l-12.04762,-40.15873" fill="none" stroke="#000000" stroke-width="3.5" stroke-linecap="round"/><path d="M241.22288,90.39374c9.72543,0.42177 20.72446,7.43825 23.61359,12.18093c2.30439,3.7828 1.16458,10.53958 1.16458,10.53958c0,0 -6.63593,9.58564 -9.83247,14.31219c-4.59667,6.79687 -4.79072,13.21361 -12.99602,13.21361c-8.6864,0 -9.24259,-6.90388 -14.33668,-13.93977c-3.81298,-5.26645 -11.10925,-14.08391 -11.10925,-14.08391c0,0 -1.38045,-8.85995 2.20273,-11.98924c3.58318,-3.12929 11.56808,-10.65517 21.29351,-10.2334z" data-paper-data="{&quot;origPos&quot;:null}" fill="#b8cbf2" stroke="#000000" stroke-width="2.5" stroke-linecap="butt"/><g data-paper-data="{&quot;origPos&quot;:null}"><path d="M232.11576,109.24334c0,-2.96519 2.40376,-5.36895 5.36895,-5.36895c2.96519,0 5.36895,2.40376 5.36895,5.36895c0,2.96519 -2.40376,5.36895 -5.36895,5.36895c-2.96519,0 -5.36895,-2.40376 -5.36895,-5.36895z" data-paper-data="{&quot;origPos&quot;:null}" fill="#000000" stroke="none" stroke-width="0" stroke-linecap="butt"/><path d="M247.32776,109.24334c0,-2.96518 2.40377,-5.36895 5.36895,-5.36895c2.96518,0 5.36895,2.40377 5.36895,5.36895c0,2.96518 -2.40377,5.36895 -5.36895,5.36895c-2.96518,0 -5.36895,-2.40377 -5.36895,-5.36895z" data-paper-data="{&quot;origPos&quot;:null}" fill="#000000" stroke="none" stroke-width="0" stroke-linecap="butt"/><path d="M232.35979,101.4375l10.16845,4.06738" data-paper-data="{&quot;origPos&quot;:null}" fill="none" stroke="#000000" stroke-width="2.5" stroke-linecap="round"/><path d="M255.95061,101.4764l-7.72803,3.66064" data-paper-data="{&quot;origPos&quot;:null}" fill="none" stroke="#000000" stroke-width="2.5" stroke-linecap="round"/></g><g data-paper-data="{&quot;origPos&quot;:null}"><g><path d="M275.74674,165.49946l-1.36667,-1.08688l1.43334,-1.1399l-1.23334,-0.98084l1.46667,-1.16641l-1.43333,-1.13989l1.53333,-1.21942" data-paper-data="{&quot;origPos&quot;:null}" fill="none" stroke="#00d1ff" stroke-width="0.75" stroke-linecap="round"/><g data-paper-data="{&quot;origPos&quot;:null}"><g data-paper-data="{&quot;origPos&quot;:null}" fill="none" stroke="#5e5e5e" stroke-width="2.5" stroke-linecap="round"><path d="M274.21931,167.66716h-9.16667l-3.83333,-4.33333" data-paper-data="{&quot;origPos&quot;:null,&quot;index&quot;:null}"/><path d="M261.38597,161.83383l3.83333,-4.33334h9.16667" data-paper-data="{&quot;origPos&quot;:null}"/></g><path d="M273.33605,157.36334c0,-1.12967 0.91578,-2.04546 2.04545,-2.04546c1.12968,0 2.04546,0.91578 2.04546,2.04546c0,1.12967 -0.91578,2.04546 -2.04546,2.04546c-1.12968,0 -2.04545,-0.91578 -2.04545,-2.04546z" data-paper-data="{&quot;origPos&quot;:null}" fill="#ecce00" stroke="none" stroke-width="0" stroke-linecap="butt"/><path d="M273.24514,167.63607c0,-1.12967 0.91578,-2.04545 2.04545,-2.04545c1.12968,0 2.04546,0.91578 2.04546,2.04545c0,1.12967 -0.91578,2.04546 -2.04546,2.04546c-1.12968,0 -2.04545,-0.91578 -2.04545,-2.04546z" data-paper-data="{&quot;origPos&quot;:null}" fill="#ecce00" stroke="none" stroke-width="0" stroke-linecap="butt"/></g></g><path d="M214.07304,171.72496v-11.66666h13.17422l0.02994,4.00496z" data-paper-data="{&quot;origPos&quot;:null}" fill="#7e7e7e" stroke="#5e5e5e" stroke-width="1" stroke-linecap="butt"/><path d="M240.23036,170.30214v-4.16667h17.33333v4.16667z" data-paper-data="{&quot;origPos&quot;:null}" fill="#7e7e7e" stroke="#5e5e5e" stroke-width="1" stroke-linecap="butt"/><path d="M234.53006,180.15754l1,-16h5.75l-1.14286,16z" data-paper-data="{&quot;origPos&quot;:null}" fill="#7e7e7e" stroke="#5e5e5e" stroke-width="1" stroke-linecap="butt"/><path d="M226.9897,167.05829v-9.25h34v9.25z" data-paper-data="{&quot;origPos&quot;:null}" fill="#0086ff" stroke="#5e5e5e" stroke-width="1.5" stroke-linecap="butt"/></g><path d="M235.82633,173.51857c0,0 -17.17569,-6.05858 -13.90237,-12.2246c2.86873,-5.40391 16.85078,-12.09683 16.85078,-12.09683" data-paper-data="{&quot;origPos&quot;:null}" fill="none" stroke="#000000" stroke-width="3.5" stroke-linecap="round"/><text transform="translate(217.72571,77.27997) scale(0.42198,0.42198)" font-size="40" xml:space="preserve" data-paper-data="{&quot;origPos&quot;:null}" fill="#6f00ff" fill-rule="nonzero" stroke="#6f00ff" stroke-width="1" stroke-linecap="butt" stroke-linejoin="miter" stroke-miterlimit="10" stroke-dasharray="" stroke-dashoffset="0" font-family="Serif" font-weight="normal" text-anchor="start" style="mix-blend-mode: normal"><tspan x="0" dy="0">ALIEN</tspan></text></g></g></svg>