<svg version="1.1" xmlns="http://www.w3.org/2000/svg" xmlns:xlink="http://www.w3.org/1999/xlink" width="50.59041" height="50.59041" viewBox="0,0,50.59041,50.59041"><g transform="translate(-214.6048,-154.60479)"><g data-paper-data="{&quot;isPaintingLayer&quot;:true}" fill="none" fill-rule="nonzero" stroke="none" stroke-width="none" stroke-linecap="none" stroke-linejoin="miter" stroke-miterlimit="10" stroke-dasharray="" stroke-dashoffset="0" font-family="none" font-weight="none" font-size="none" text-anchor="none" style="mix-blend-mode: normal"><path d="M216.37257,179.92806l23.49938,-23.5555l23.5555,23.49938l-23.49938,23.5555z" data-paper-data="{&quot;origPos&quot;:null,&quot;origRot&quot;:0}" fill="#98deff" stroke="#0057cc" stroke-width="2.5" stroke-linecap="butt"/><g data-paper-data="{&quot;origPos&quot;:null,&quot;origRot&quot;:0}"><path d="M240.44635,189.73816l3.09143,-4.92429l2.05695,5.35849" data-paper-data="{&quot;origPos&quot;:null}" fill="none" stroke="#000000" stroke-width="1.5" stroke-linecap="round"/><path d="M243.49577,185.31211l0.8684,-10.29678" fill="none" stroke="#000000" stroke-width="1.5" stroke-linecap="round"/><path d="M240.87055,180.74199l3.31154,-3.56766l2.5912,3.98185" data-paper-data="{&quot;origPos&quot;:null}" fill="none" stroke="#000000" stroke-width="1.5" stroke-linecap="round"/><path d="M240.75449,172.20202c0.17792,-2.1096 2.03232,-3.67554 4.14192,-3.49762c2.1096,0.17792 3.67554,2.03232 3.49762,4.14192c-0.17792,2.1096 -2.03232,3.67554 -4.14192,3.49762c-2.1096,-0.17792 -3.67554,-2.03232 -3.49762,-4.14192z" data-paper-data="{&quot;origPos&quot;:null}" fill="#000000" stroke="none" stroke-width="0" stroke-linecap="butt"/></g><path d="M238.5,173.5h-7.66667" data-paper-data="{&quot;origPos&quot;:null}" fill="none" stroke="#ffffff" stroke-width="1.5" stroke-linecap="round"/><path d="M238.66667,180.83333h-12.83333" data-paper-data="{&quot;origPos&quot;:null}" fill="none" stroke="#ffffff" stroke-width="1.5" stroke-linecap="round"/><path d="M238.83333,188.33333h-7" fill="none" stroke="#ffffff" stroke-width="1.5" stroke-linecap="round"/></g></g></svg>