<svg version="1.1" xmlns="http://www.w3.org/2000/svg" xmlns:xlink="http://www.w3.org/1999/xlink" width="561.53631" height="374.48308" viewBox="0,0,561.53631,374.48308"><g transform="translate(14.76816,7.24155)"><g data-paper-data="{&quot;isPaintingLayer&quot;:true}" fill="none" fill-rule="nonzero" stroke="none" stroke-width="none" stroke-linecap="none" stroke-linejoin="miter" stroke-miterlimit="10" stroke-dasharray="" stroke-dashoffset="0" font-family="none" font-weight="none" font-size="none" text-anchor="none" style="mix-blend-mode: normal"><g data-paper-data="{&quot;origPos&quot;:null}" stroke="none" stroke-linecap="butt"><path d="M495.97708,364.00401c-1.18958,0.54014 -2.39969,-0.26659 -2.39969,-0.26659l0.30748,-0.59006c-0.21981,0.02506 -0.46263,0.02415 -0.73082,-0.00937c-2.48069,-0.31009 -2.1706,-2.79078 -2.1706,-2.79078c1.04664,-8.37311 5.59407,-15.13243 11.64871,-20.89104c1.36032,-1.29381 3.17342,-2.87528 4.83199,-3.79887c1.11893,-0.62309 2.5847,-0.83398 3.5,-1.75c3.17926,-2.38445 6.76503,-2.40511 10.5,-2.75c3.40426,-0.31435 6.3602,-0.94781 9.6868,0.59619c3.95096,1.83378 7.06798,5.62305 10.08097,8.63604c4.64585,4.64585 4.13101,9.2699 4.73224,15.26777c0.13076,1.30451 1.36186,4.38914 0.5,5.5c-3.0046,3.87264 -7.00717,3 -11.25,3c-10,0 -20,0 -30,0c-3.08334,0 -6.16666,0 -9.25,0z" fill="#e28f00" stroke-width="0.5"/><path d="M508.71598,342.7491c0,-2.07107 1.67893,-3.75 3.75,-3.75c2.07107,0 3.75,1.67893 3.75,3.75c0,2.07107 -1.67893,3.75 -3.75,3.75c-2.07107,0 -3.75,-1.67893 -3.75,-3.75z" fill="#000000" stroke-width="0"/><path d="M525.46598,342.6241c0,-2.00203 1.62297,-3.625 3.625,-3.625c2.00203,0 3.625,1.62297 3.625,3.625c0,2.00203 -1.62297,3.625 -3.625,3.625c-2.00203,0 -3.625,-1.62297 -3.625,-3.625z" data-paper-data="{&quot;origPos&quot;:null}" fill="#000000" stroke-width="0"/><path d="M531.96598,355.2491c0,2.8995 -4.98083,5.25 -11.125,5.25c-6.14417,0 -11.125,-2.3505 -11.125,-5.25c0,-2.8995 4.98083,-5.25 11.125,-5.25c6.14417,0 11.125,2.3505 11.125,5.25z" data-paper-data="{&quot;origPos&quot;:null}" fill="#ff005d" stroke-width="0"/></g><g><g data-paper-data="{&quot;origPos&quot;:null}" stroke="none" stroke-linecap="butt"><path d="M5.97708,363.00401c-1.18958,0.54014 -2.39969,-0.26659 -2.39969,-0.26659l0.30748,-0.59006c-0.21981,0.02506 -0.46263,0.02415 -0.73082,-0.00937c-2.48069,-0.31009 -2.1706,-2.79078 -2.1706,-2.79078c1.04664,-8.37311 5.59407,-15.13243 11.64871,-20.89104c1.36032,-1.29381 3.17342,-2.87528 4.83199,-3.79887c1.11893,-0.62309 2.5847,-0.83398 3.5,-1.75c3.17926,-2.38445 6.76503,-2.40511 10.5,-2.75c3.40426,-0.31435 6.3602,-0.94781 9.6868,0.59619c3.95096,1.83378 7.06798,5.62305 10.08097,8.63604c4.64585,4.64585 4.13101,9.2699 4.73224,15.26777c0.13076,1.30451 1.36186,4.38914 0.5,5.5c-3.0046,3.87264 -7.00717,3 -11.25,3c-10,0 -20,0 -30,0c-3.08334,0 -6.16666,0 -9.25,0z" fill="#e28f00" stroke-width="0.5"/><path d="M18.71599,341.7491c0,-2.07107 1.67893,-3.75 3.75,-3.75c2.07107,0 3.75,1.67893 3.75,3.75c0,2.07107 -1.67893,3.75 -3.75,3.75c-2.07107,0 -3.75,-1.67893 -3.75,-3.75z" fill="#000000" stroke-width="0"/><path d="M35.46599,341.6241c0,-2.00203 1.62297,-3.625 3.625,-3.625c2.00203,0 3.625,1.62297 3.625,3.625c0,2.00203 -1.62297,3.625 -3.625,3.625c-2.00203,0 -3.625,-1.62297 -3.625,-3.625z" data-paper-data="{&quot;origPos&quot;:null}" fill="#000000" stroke-width="0"/><path d="M41.96599,354.2491c0,2.8995 -4.98083,5.25 -11.125,5.25c-6.14417,0 -11.125,-2.3505 -11.125,-5.25c0,-2.8995 4.98083,-5.25 11.125,-5.25c6.14417,0 11.125,2.3505 11.125,5.25z" data-paper-data="{&quot;origPos&quot;:null}" fill="#ff005d" stroke-width="0"/></g><g data-paper-data="{&quot;origPos&quot;:null}" stroke="none" stroke-linecap="butt"><path d="M51.97708,365.00401c-1.18958,0.54014 -2.39969,-0.26659 -2.39969,-0.26659l0.30748,-0.59006c-0.21981,0.02506 -0.46263,0.02415 -0.73082,-0.00937c-2.48069,-0.31009 -2.1706,-2.79078 -2.1706,-2.79078c1.04664,-8.37311 5.59407,-15.13243 11.64871,-20.89104c1.36032,-1.29381 3.17342,-2.87528 4.83199,-3.79887c1.11893,-0.62309 2.5847,-0.83398 3.5,-1.75c3.17926,-2.38445 6.76503,-2.40511 10.5,-2.75c3.40426,-0.31435 6.3602,-0.94781 9.6868,0.59619c3.95096,1.83378 7.06798,5.62305 10.08097,8.63604c4.64585,4.64585 4.13101,9.2699 4.73224,15.26777c0.13076,1.30451 1.36186,4.38914 0.5,5.5c-3.0046,3.87264 -7.00717,3 -11.25,3c-10,0 -20,0 -30,0c-3.08334,0 -6.16666,0 -9.25,0z" fill="#e28f00" stroke-width="0.5"/><path d="M64.71599,343.7491c0,-2.07107 1.67893,-3.75 3.75,-3.75c2.07107,0 3.75,1.67893 3.75,3.75c0,2.07107 -1.67893,3.75 -3.75,3.75c-2.07107,0 -3.75,-1.67893 -3.75,-3.75z" fill="#000000" stroke-width="0"/><path d="M81.46599,343.6241c0,-2.00203 1.62297,-3.625 3.625,-3.625c2.00203,0 3.625,1.62297 3.625,3.625c0,2.00203 -1.62297,3.625 -3.625,3.625c-2.00203,0 -3.625,-1.62297 -3.625,-3.625z" data-paper-data="{&quot;origPos&quot;:null}" fill="#000000" stroke-width="0"/><path d="M87.96599,356.2491c0,2.8995 -4.98083,5.25 -11.125,5.25c-6.14417,0 -11.125,-2.3505 -11.125,-5.25c0,-2.8995 4.98083,-5.25 11.125,-5.25c6.14417,0 11.125,2.3505 11.125,5.25z" data-paper-data="{&quot;origPos&quot;:null}" fill="#ff005d" stroke-width="0"/></g><g data-paper-data="{&quot;origPos&quot;:null}" stroke="none" stroke-linecap="butt"><path d="M99.97708,364.74155c-1.18958,1.13701 -2.39969,-0.56118 -2.39969,-0.56118l0.30748,-1.2421c-0.21981,0.05275 -0.46263,0.05084 -0.73082,-0.01972c-2.48069,-0.65275 -2.1706,-5.87469 -2.1706,-5.87469c1.04664,-17.6257 5.59407,-31.85431 11.64871,-43.97639c1.36032,-2.72352 3.17342,-6.05257 4.83199,-7.99676c1.11893,-1.31163 2.5847,-1.75556 3.5,-3.68381c3.17926,-5.01935 6.76503,-5.06284 10.5,-5.78885c3.40426,-0.66172 6.3602,-1.99517 9.6868,1.255c3.95096,3.86017 7.06798,11.83672 10.08097,18.17917c4.64585,9.77968 4.13101,19.51347 4.73224,32.1392c0.13076,2.74604 1.36186,9.2393 0.5,11.5777c-3.0046,8.15205 -7.00717,6.31511 -11.25,6.31511c-10,0 -20,0 -30,0c-3.08334,0 -6.16666,0 -9.25,0z" fill="#e28f00" stroke-width="0.5"/><path d="M112.71599,319.99921c0,-4.35968 1.67893,-7.89388 3.75,-7.89388c2.07107,0 3.75,3.53421 3.75,7.89388c0,4.35968 -1.67893,7.89388 -3.75,7.89388c-2.07107,0 -3.75,-3.53421 -3.75,-7.89388z" fill="#000000" stroke-width="0"/><path d="M129.46599,319.73607c0,-4.21434 1.62297,-7.63076 3.625,-7.63076c2.00203,0 3.625,3.41641 3.625,7.63076c0,4.21434 -1.62297,7.63076 -3.625,7.63076c-2.00203,0 -3.625,-3.41641 -3.625,-7.63076z" data-paper-data="{&quot;origPos&quot;:null}" fill="#000000" stroke-width="0"/><path d="M135.96599,346.31215c0,6.10355 -4.98083,11.05144 -11.125,11.05144c-6.14417,0 -11.125,-4.94789 -11.125,-11.05144c0,-6.10355 4.98083,-11.05144 11.125,-11.05144c6.14417,0 11.125,4.94789 11.125,11.05144z" data-paper-data="{&quot;origPos&quot;:null}" fill="#ff005d" stroke-width="0"/></g><g data-paper-data="{&quot;origPos&quot;:null}" stroke="none" stroke-linecap="butt"><path d="M145.97708,365.00401c-1.18958,0.54014 -2.39969,-0.26659 -2.39969,-0.26659l0.30748,-0.59006c-0.21981,0.02506 -0.46263,0.02415 -0.73082,-0.00937c-2.48069,-0.31009 -2.1706,-2.79078 -2.1706,-2.79078c1.04664,-8.37311 5.59407,-15.13243 11.64871,-20.89104c1.36032,-1.29381 3.17342,-2.87528 4.83199,-3.79887c1.11893,-0.62309 2.5847,-0.83398 3.5,-1.75c3.17926,-2.38445 6.76503,-2.40511 10.5,-2.75c3.40426,-0.31435 6.3602,-0.94781 9.6868,0.59619c3.95096,1.83378 7.06798,5.62305 10.08097,8.63604c4.64585,4.64585 4.13101,9.2699 4.73224,15.26777c0.13076,1.30451 1.36186,4.38914 0.5,5.5c-3.0046,3.87264 -7.00717,3 -11.25,3c-10,0 -20,0 -30,0c-3.08334,0 -6.16666,0 -9.25,0z" fill="#e28f00" stroke-width="0.5"/><path d="M158.71598,343.7491c0,-2.07107 1.67893,-3.75 3.75,-3.75c2.07107,0 3.75,1.67893 3.75,3.75c0,2.07107 -1.67893,3.75 -3.75,3.75c-2.07107,0 -3.75,-1.67893 -3.75,-3.75z" fill="#000000" stroke-width="0"/><path d="M175.46598,343.6241c0,-2.00203 1.62297,-3.625 3.625,-3.625c2.00203,0 3.625,1.62297 3.625,3.625c0,2.00203 -1.62297,3.625 -3.625,3.625c-2.00203,0 -3.625,-1.62297 -3.625,-3.625z" data-paper-data="{&quot;origPos&quot;:null}" fill="#000000" stroke-width="0"/><path d="M181.96598,356.2491c0,2.8995 -4.98083,5.25 -11.125,5.25c-6.14417,0 -11.125,-2.3505 -11.125,-5.25c0,-2.8995 4.98083,-5.25 11.125,-5.25c6.14417,0 11.125,2.3505 11.125,5.25z" data-paper-data="{&quot;origPos&quot;:null}" fill="#ff005d" stroke-width="0"/></g><g data-paper-data="{&quot;origPos&quot;:null}" stroke="none" stroke-linecap="butt"><path d="M189.97708,366.00401c-1.18958,0.54014 -2.39969,-0.26659 -2.39969,-0.26659l0.30748,-0.59006c-0.21981,0.02506 -0.46263,0.02415 -0.73082,-0.00937c-2.48069,-0.31009 -2.1706,-2.79078 -2.1706,-2.79078c1.04664,-8.37311 5.59407,-15.13243 11.64871,-20.89104c1.36032,-1.29381 3.17342,-2.87528 4.83199,-3.79887c1.11893,-0.62309 2.5847,-0.83398 3.5,-1.75c3.17926,-2.38445 6.76503,-2.40511 10.5,-2.75c3.40426,-0.31435 6.3602,-0.94781 9.6868,0.59619c3.95096,1.83378 7.06798,5.62305 10.08097,8.63604c4.64585,4.64585 4.13101,9.2699 4.73224,15.26777c0.13076,1.30451 1.36186,4.38914 0.5,5.5c-3.0046,3.87264 -7.00717,3 -11.25,3c-10,0 -20,0 -30,0c-3.08334,0 -6.16666,0 -9.25,0z" fill="#e28f00" stroke-width="0.5"/><path d="M202.71598,344.7491c0,-2.07107 1.67893,-3.75 3.75,-3.75c2.07107,0 3.75,1.67893 3.75,3.75c0,2.07107 -1.67893,3.75 -3.75,3.75c-2.07107,0 -3.75,-1.67893 -3.75,-3.75z" fill="#000000" stroke-width="0"/><path d="M219.46598,344.6241c0,-2.00203 1.62297,-3.625 3.625,-3.625c2.00203,0 3.625,1.62297 3.625,3.625c0,2.00203 -1.62297,3.625 -3.625,3.625c-2.00203,0 -3.625,-1.62297 -3.625,-3.625z" data-paper-data="{&quot;origPos&quot;:null}" fill="#000000" stroke-width="0"/><path d="M225.96598,357.2491c0,2.8995 -4.98083,5.25 -11.125,5.25c-6.14417,0 -11.125,-2.3505 -11.125,-5.25c0,-2.8995 4.98083,-5.25 11.125,-5.25c6.14417,0 11.125,2.3505 11.125,5.25z" data-paper-data="{&quot;origPos&quot;:null}" fill="#ff005d" stroke-width="0"/></g><g data-paper-data="{&quot;origPos&quot;:null,&quot;index&quot;:null}" stroke="none" stroke-linecap="butt"><path d="M472.77503,364.1573c-3.08334,0 -6.16666,0 -9.25,0c-10,0 -20,0 -30,0c-4.24283,0 -8.2454,0.87264 -11.25,-3c-0.86186,-1.11086 0.36924,-4.19549 0.5,-5.5c0.60123,-5.99787 0.08639,-10.62192 4.73224,-15.26777c3.01299,-3.01299 6.13001,-6.80226 10.08097,-8.63604c3.3266,-1.544 6.28254,-0.91054 9.6868,-0.59619c3.73497,0.34489 7.32074,0.36555 10.5,2.75c0.9153,0.91602 2.38107,1.12691 3.5,1.75c1.65857,0.92359 3.47167,2.50506 4.83199,3.79887c6.05464,5.75861 10.60207,12.51793 11.64871,20.89104c0,0 0.31009,2.48069 -2.1706,2.79078c-0.26819,0.03352 -0.51101,0.03443 -0.73082,0.00937l0.30748,0.59006c0,0 -1.21011,0.80673 -2.39969,0.26659z" fill="#e28f00" stroke-width="0.5"/><path d="M456.2732,346.4991c-2.07107,0 -3.75,-1.67893 -3.75,-3.75c0,-2.07107 1.67893,-3.75 3.75,-3.75c2.07107,0 3.75,1.67893 3.75,3.75c0,2.07107 -1.67893,3.75 -3.75,3.75z" fill="#000000" stroke-width="0"/><path d="M439.6482,346.2491c-2.00203,0 -3.625,-1.62297 -3.625,-3.625c0,-2.00203 1.62297,-3.625 3.625,-3.625c2.00203,0 3.625,1.62297 3.625,3.625c0,2.00203 -1.62297,3.625 -3.625,3.625z" data-paper-data="{&quot;origPos&quot;:null}" fill="#000000" stroke-width="0"/><path d="M447.8982,349.9991c6.14417,0 11.125,2.3505 11.125,5.25c0,2.8995 -4.98083,5.25 -11.125,5.25c-6.14417,0 -11.125,-2.3505 -11.125,-5.25c0,-2.8995 4.98083,-5.25 11.125,-5.25z" data-paper-data="{&quot;origPos&quot;:null}" fill="#ff005d" stroke-width="0"/></g><g data-paper-data="{&quot;origPos&quot;:null,&quot;index&quot;:null}" stroke="none" stroke-linecap="butt"><path d="M426.77503,366.1573c-3.08334,0 -6.16666,0 -9.25,0c-10,0 -20,0 -30,0c-4.24283,0 -8.2454,0.87264 -11.25,-3c-0.86186,-1.11086 0.36924,-4.19549 0.5,-5.5c0.60123,-5.99787 0.08639,-10.62192 4.73224,-15.26777c3.01299,-3.01299 6.13001,-6.80226 10.08097,-8.63604c3.3266,-1.544 6.28254,-0.91054 9.6868,-0.59619c3.73497,0.34489 7.32074,0.36555 10.5,2.75c0.9153,0.91602 2.38107,1.12691 3.5,1.75c1.65857,0.92359 3.47167,2.50506 4.83199,3.79887c6.05464,5.75861 10.60207,12.51793 11.64871,20.89104c0,0 0.31009,2.48069 -2.1706,2.79078c-0.26819,0.03352 -0.51101,0.03443 -0.73082,0.00937l0.30748,0.59006c0,0 -1.21011,0.80673 -2.39969,0.26659z" fill="#e28f00" stroke-width="0.5"/><path d="M410.2732,348.4991c-2.07107,0 -3.75,-1.67893 -3.75,-3.75c0,-2.07107 1.67893,-3.75 3.75,-3.75c2.07107,0 3.75,1.67893 3.75,3.75c0,2.07107 -1.67893,3.75 -3.75,3.75z" fill="#000000" stroke-width="0"/><path d="M393.6482,348.2491c-2.00203,0 -3.625,-1.62297 -3.625,-3.625c0,-2.00203 1.62297,-3.625 3.625,-3.625c2.00203,0 3.625,1.62297 3.625,3.625c0,2.00203 -1.62297,3.625 -3.625,3.625z" data-paper-data="{&quot;origPos&quot;:null}" fill="#000000" stroke-width="0"/><path d="M401.8982,351.9991c6.14417,0 11.125,2.3505 11.125,5.25c0,2.8995 -4.98083,5.25 -11.125,5.25c-6.14417,0 -11.125,-2.3505 -11.125,-5.25c0,-2.8995 4.98083,-5.25 11.125,-5.25z" data-paper-data="{&quot;origPos&quot;:null}" fill="#ff005d" stroke-width="0"/></g><g data-paper-data="{&quot;origPos&quot;:null,&quot;index&quot;:null}" stroke="none" stroke-linecap="butt"><path d="M378.77503,366.06424c-3.08334,0 -6.16666,0 -9.25,0c-10,0 -20,0 -30,0c-4.24283,0 -8.2454,1.83694 -11.25,-6.31511c-0.86186,-2.3384 0.36924,-8.83166 0.5,-11.5777c0.60123,-12.62573 0.08639,-22.35953 4.73224,-32.13921c3.01299,-6.34245 6.13001,-14.319 10.08097,-18.17918c3.3266,-3.25018 6.28254,-1.91672 9.6868,-1.255c3.73497,0.726 7.32074,0.7695 10.5,5.78885c0.9153,1.92825 2.38107,2.37219 3.5,3.68381c1.65857,1.94419 3.47167,5.27324 4.83199,7.99676c6.05464,12.12208 10.60207,26.35069 11.64871,43.97639c0,0 0.31009,5.22194 -2.1706,5.87469c-0.26819,0.07056 -0.51101,0.07247 -0.73082,0.01972l0.30748,1.2421c0,0 -1.21011,1.6982 -2.39969,0.56118z" fill="#e28f00" stroke-width="0.5"/><path d="M362.2732,328.89309c-2.07107,0 -3.75,-3.53421 -3.75,-7.89389c0,-4.35967 1.67893,-7.89389 3.75,-7.89389c2.07107,0 3.75,3.53421 3.75,7.89389c0,4.35967 -1.67893,7.89389 -3.75,7.89389z" fill="#000000" stroke-width="0"/><path d="M345.6482,328.36683c-2.00203,0 -3.625,-3.41641 -3.625,-7.63076c0,-4.21434 1.62297,-7.63076 3.625,-7.63076c2.00203,0 3.625,3.41641 3.625,7.63076c0,4.21434 -1.62297,7.63076 -3.625,7.63076z" data-paper-data="{&quot;origPos&quot;:null}" fill="#000000" stroke-width="0"/><path d="M353.8982,336.26072c6.14417,0 11.125,4.94789 11.125,11.05144c0,6.10355 -4.98083,11.05144 -11.125,11.05144c-6.14417,0 -11.125,-4.94789 -11.125,-11.05144c0,-6.10355 4.98083,-11.05144 11.125,-11.05144z" data-paper-data="{&quot;origPos&quot;:null}" fill="#ff005d" stroke-width="0"/></g><g data-paper-data="{&quot;origPos&quot;:null,&quot;index&quot;:null}" stroke="none" stroke-linecap="butt"><path d="M332.77503,366.1573c-3.08334,0 -6.16666,0 -9.25,0c-10,0 -20,0 -30,0c-4.24283,0 -8.2454,0.87264 -11.25,-3c-0.86186,-1.11086 0.36924,-4.19549 0.5,-5.5c0.60123,-5.99787 0.08639,-10.62192 4.73224,-15.26777c3.01299,-3.01299 6.13001,-6.80226 10.08097,-8.63604c3.3266,-1.544 6.28254,-0.91054 9.6868,-0.59619c3.73497,0.34489 7.32074,0.36555 10.5,2.75c0.9153,0.91602 2.38107,1.12691 3.5,1.75c1.65857,0.92359 3.47167,2.50506 4.83199,3.79887c6.05464,5.75861 10.60207,12.51793 11.64871,20.89104c0,0 0.31009,2.48069 -2.1706,2.79078c-0.26819,0.03352 -0.51101,0.03443 -0.73082,0.00937l0.30748,0.59006c0,0 -1.21011,0.80673 -2.39969,0.26659z" fill="#e28f00" stroke-width="0.5"/><path d="M316.2732,348.4991c-2.07107,0 -3.75,-1.67893 -3.75,-3.75c0,-2.07107 1.67893,-3.75 3.75,-3.75c2.07107,0 3.75,1.67893 3.75,3.75c0,2.07107 -1.67893,3.75 -3.75,3.75z" fill="#000000" stroke-width="0"/><path d="M299.6482,348.2491c-2.00203,0 -3.625,-1.62297 -3.625,-3.625c0,-2.00203 1.62297,-3.625 3.625,-3.625c2.00203,0 3.625,1.62297 3.625,3.625c0,2.00203 -1.62297,3.625 -3.625,3.625z" data-paper-data="{&quot;origPos&quot;:null}" fill="#000000" stroke-width="0"/><path d="M307.8982,351.9991c6.14417,0 11.125,2.3505 11.125,5.25c0,2.8995 -4.98083,5.25 -11.125,5.25c-6.14417,0 -11.125,-2.3505 -11.125,-5.25c0,-2.8995 4.98083,-5.25 11.125,-5.25z" data-paper-data="{&quot;origPos&quot;:null}" fill="#ff005d" stroke-width="0"/></g><g data-paper-data="{&quot;origPos&quot;:null,&quot;index&quot;:null}" stroke="none" stroke-linecap="butt"><path d="M288.77503,367.1573c-3.08334,0 -6.16666,0 -9.25,0c-10,0 -20,0 -30,0c-4.24283,0 -8.2454,0.87264 -11.25,-3c-0.86186,-1.11086 0.36924,-4.19549 0.5,-5.5c0.60123,-5.99787 0.08639,-10.62192 4.73224,-15.26777c3.01299,-3.01299 6.13001,-6.80226 10.08097,-8.63604c3.3266,-1.544 6.28254,-0.91054 9.6868,-0.59619c3.73497,0.34489 7.32074,0.36555 10.5,2.75c0.9153,0.91602 2.38107,1.12691 3.5,1.75c1.65857,0.92359 3.47167,2.50506 4.83199,3.79887c6.05464,5.75861 10.60207,12.51793 11.64871,20.89104c0,0 0.31009,2.48069 -2.1706,2.79078c-0.26819,0.03352 -0.51101,0.03443 -0.73082,0.00937l0.30748,0.59006c0,0 -1.21011,0.80673 -2.39969,0.26659z" fill="#e28f00" stroke-width="0.5"/><path d="M272.2732,349.4991c-2.07107,0 -3.75,-1.67893 -3.75,-3.75c0,-2.07107 1.67893,-3.75 3.75,-3.75c2.07107,0 3.75,1.67893 3.75,3.75c0,2.07107 -1.67893,3.75 -3.75,3.75z" fill="#000000" stroke-width="0"/><path d="M255.6482,349.2491c-2.00203,0 -3.625,-1.62297 -3.625,-3.625c0,-2.00203 1.62297,-3.625 3.625,-3.625c2.00203,0 3.625,1.62297 3.625,3.625c0,2.00203 -1.62297,3.625 -3.625,3.625z" data-paper-data="{&quot;origPos&quot;:null}" fill="#000000" stroke-width="0"/><path d="M263.8982,352.9991c6.14417,0 11.125,2.3505 11.125,5.25c0,2.8995 -4.98083,5.25 -11.125,5.25c-6.14417,0 -11.125,-2.3505 -11.125,-5.25c0,-2.8995 4.98083,-5.25 11.125,-5.25z" data-paper-data="{&quot;origPos&quot;:null}" fill="#ff005d" stroke-width="0"/></g><g data-paper-data="{&quot;origPos&quot;:null}" stroke="none" stroke-linecap="butt"><g data-paper-data="{&quot;origPos&quot;:null,&quot;origRot&quot;:0}"><path d="M182.50028,252.8965c-0.7224,0.36741 -1.4945,-0.09932 -1.4945,-0.09932l0.17435,-0.37412c-0.13554,0.02157 -0.28605,0.02767 -0.45317,0.01426c-1.54588,-0.12405 -1.42184,-1.66994 -1.42184,-1.66994c0.4187,-5.21786 3.05129,-9.53173 6.64543,-13.26682c0.80751,-0.83918 1.88772,-1.86906 2.89024,-2.48699c0.67633,-0.41688 1.57892,-0.58782 2.12102,-1.18065c1.90482,-1.56503 4.12649,-1.67631 6.4317,-1.99262c2.1011,-0.28831 3.91562,-0.76206 6.01963,0.10346c2.49891,1.02795 4.5347,3.29072 6.4847,5.07523c3.00679,2.75162 2.8147,5.63145 3.35202,9.33203c0.11686,0.80487 0.96452,2.68272 0.4609,3.39481c-1.75572,2.48253 -4.26021,2.05163 -6.88965,2.16815c-6.19736,0.27462 -12.39471,0.54922 -18.59207,0.82384c-1.91085,0.08467 -3.8217,0.16935 -5.73255,0.25402z" fill="#e28f00" stroke-width="0.5"/><path d="M189.81135,239.37424c-0.05687,-1.28352 0.93751,-2.37011 2.22103,-2.42699c1.28352,-0.05687 2.37011,0.93751 2.42699,2.22103c0.05687,1.28352 -0.93751,2.37011 -2.22103,2.42699c-1.28352,0.05687 -2.37012,-0.9375 -2.42699,-2.22102z" fill="#000000" stroke-width="0"/><path d="M200.1885,238.83679c-0.05498,-1.24074 0.90627,-2.29111 2.147,-2.34609c1.24074,-0.05498 2.29111,0.90626 2.34609,2.147c0.05498,1.24074 -0.90626,2.29111 -2.14699,2.34609c-1.24074,0.05498 -2.29112,-0.90626 -2.3461,-2.147z" data-paper-data="{&quot;origPos&quot;:null}" fill="#000000" stroke-width="0"/><path d="M204.56348,246.48246c0.07962,1.79692 -2.94263,3.3904 -6.75039,3.55912c-3.80776,0.16872 -6.95911,-1.15119 -7.03874,-2.94811c-0.07962,-1.79692 2.94263,-3.3904 6.75039,-3.55912c3.80776,-0.16872 6.95911,1.15119 7.03874,2.94811z" data-paper-data="{&quot;origPos&quot;:null}" fill="#ff005d" stroke-width="0"/></g><g data-paper-data="{&quot;origPos&quot;:null,&quot;origRot&quot;:0}"><path d="M209.79613,252.30794c-0.7224,0.36741 -1.49449,-0.09932 -1.49449,-0.09932l0.17435,-0.37412c-0.13554,0.02157 -0.28605,0.02767 -0.45317,0.01426c-1.54588,-0.12405 -1.42184,-1.66993 -1.42184,-1.66993c0.4187,-5.21786 3.05129,-9.53173 6.64543,-13.26682c0.80751,-0.83918 1.88772,-1.86906 2.89024,-2.487c0.67633,-0.41688 1.57892,-0.58782 2.12102,-1.18065c1.90482,-1.56503 4.12649,-1.67632 6.4317,-1.99262c2.1011,-0.28831 3.91562,-0.76206 6.01963,0.10346c2.49891,1.02795 4.53469,3.29072 6.48469,5.07523c3.00679,2.75162 2.8147,5.63145 3.35202,9.33203c0.11686,0.80487 0.96453,2.68272 0.4609,3.39482c-1.75572,2.48253 -4.26021,2.05163 -6.88965,2.16814c-6.19736,0.27462 -12.39472,0.54922 -18.59208,0.82384c-1.91085,0.08467 -3.8217,0.16935 -5.73255,0.25402z" fill="#e28f00" stroke-width="0.5"/><path d="M217.10721,238.78567c-0.05687,-1.28352 0.9375,-2.37011 2.22102,-2.42699c1.28352,-0.05687 2.37011,0.93751 2.42699,2.22103c0.05687,1.28352 -0.93751,2.37012 -2.22103,2.42699c-1.28352,0.05687 -2.37011,-0.93751 -2.42699,-2.22103z" fill="#000000" stroke-width="0"/><path d="M227.48435,238.24823c-0.05498,-1.24074 0.90626,-2.29111 2.147,-2.34609c1.24074,-0.05498 2.29111,0.90626 2.34609,2.147c0.05498,1.24074 -0.90626,2.29112 -2.147,2.3461c-1.24074,0.05498 -2.29111,-0.90627 -2.34609,-2.147z" data-paper-data="{&quot;origPos&quot;:null}" fill="#000000" stroke-width="0"/><path d="M231.85933,245.8939c0.07962,1.79692 -2.94262,3.3904 -6.75039,3.55912c-3.80776,0.16872 -6.95912,-1.15118 -7.03874,-2.94811c-0.07962,-1.79692 2.94263,-3.3904 6.7504,-3.55912c3.80776,-0.16872 6.95911,1.15118 7.03873,2.94811z" data-paper-data="{&quot;origPos&quot;:null}" fill="#ff005d" stroke-width="0"/></g><g data-paper-data="{&quot;origPos&quot;:null,&quot;origRot&quot;:0}"><path d="M238.35891,252.28419c-0.7224,0.36741 -1.49449,-0.09932 -1.49449,-0.09932l0.17435,-0.37413c-0.13554,0.02157 -0.28605,0.02767 -0.45317,0.01427c-1.54588,-0.12405 -1.42184,-1.66994 -1.42184,-1.66994c0.4187,-5.21786 3.05129,-9.53173 6.64543,-13.26682c0.80751,-0.83918 1.88772,-1.86906 2.89024,-2.48699c0.67633,-0.41688 1.57892,-0.58782 2.12101,-1.18065c1.90482,-1.56503 4.12649,-1.67631 6.43171,-1.99262c2.1011,-0.28831 3.91561,-0.76206 6.01963,0.10346c2.4989,1.02795 4.5347,3.29072 6.4847,5.07523c3.00678,2.75162 2.8147,5.63145 3.35201,9.33203c0.11687,0.80487 0.96452,2.68272 0.4609,3.39481c-1.75572,2.48253 -4.26021,2.05163 -6.88964,2.16815c-6.19736,0.27462 -12.39472,0.54922 -18.59208,0.82384c-1.91085,0.08467 -3.8217,0.16935 -5.73255,0.25402z" fill="#e28f00" stroke-width="0.5"/><path d="M245.66998,238.76193c-0.05687,-1.28352 0.93751,-2.37011 2.22103,-2.42699c1.28352,-0.05687 2.37011,0.93751 2.42699,2.22103c0.05687,1.28352 -0.93751,2.37012 -2.22103,2.42699c-1.28352,0.05687 -2.37012,-0.93751 -2.42699,-2.22103z" fill="#000000" stroke-width="0"/><path d="M256.04712,238.22449c-0.05498,-1.24074 0.90626,-2.29111 2.147,-2.34609c1.24073,-0.05498 2.29111,0.90626 2.34609,2.147c0.05498,1.24074 -0.90627,2.29111 -2.147,2.34609c-1.24073,0.05498 -2.29111,-0.90626 -2.34609,-2.147z" data-paper-data="{&quot;origPos&quot;:null}" fill="#000000" stroke-width="0"/><path d="M260.42211,245.87015c0.07963,1.79692 -2.94263,3.3904 -6.7504,3.55913c-3.80776,0.16872 -6.95911,-1.15119 -7.03874,-2.94811c-0.07962,-1.79692 2.94263,-3.3904 6.75039,-3.55912c3.80777,-0.16872 6.95911,1.15118 7.03874,2.94811z" data-paper-data="{&quot;origPos&quot;:null}" fill="#ff005d" stroke-width="0"/></g><g data-paper-data="{&quot;origPos&quot;:null,&quot;origRot&quot;:0}"><path d="M268.10624,250.96605c-0.7224,0.36741 -1.49449,-0.09932 -1.49449,-0.09932l0.17435,-0.37413c-0.13554,0.02157 -0.28605,0.02767 -0.45317,0.01427c-1.54588,-0.12405 -1.42183,-1.66994 -1.42183,-1.66994c0.4187,-5.21786 3.05129,-9.53173 6.64543,-13.26682c0.80752,-0.83918 1.88772,-1.86906 2.89024,-2.487c0.67633,-0.41688 1.57892,-0.58782 2.12101,-1.18065c1.90483,-1.56503 4.12649,-1.67632 6.43171,-1.99262c2.10111,-0.28831 3.91562,-0.76206 6.01963,0.10346c2.4989,1.02795 4.53469,3.29072 6.48469,5.07523c3.00678,2.75162 2.8147,5.63146 3.35201,9.33204c0.11687,0.80487 0.96453,2.68271 0.46091,3.39481c-1.75572,2.48253 -4.26022,2.05164 -6.88965,2.16815c-6.19736,0.27462 -12.39471,0.54922 -18.59207,0.82383c-1.91086,0.08467 -3.8217,0.16935 -5.73256,0.25402z" fill="#e28f00" stroke-width="0.5"/><path d="M275.41731,237.44378c-0.05687,-1.28352 0.93751,-2.37012 2.22103,-2.42699c1.28352,-0.05687 2.37011,0.93751 2.42699,2.22103c0.05687,1.28352 -0.93751,2.37011 -2.22103,2.42699c-1.28352,0.05687 -2.37012,-0.93751 -2.42699,-2.22103z" fill="#000000" stroke-width="0"/><path d="M285.79446,236.90634c-0.05498,-1.24074 0.90626,-2.29112 2.147,-2.3461c1.24073,-0.05498 2.29111,0.90627 2.34609,2.147c0.05498,1.24074 -0.90627,2.29111 -2.147,2.34609c-1.24073,0.05498 -2.29111,-0.90626 -2.34609,-2.147z" data-paper-data="{&quot;origPos&quot;:null}" fill="#000000" stroke-width="0"/><path d="M290.16944,244.55201c0.07963,1.79692 -2.94263,3.3904 -6.75039,3.55913c-3.80777,0.16872 -6.95911,-1.15119 -7.03874,-2.94811c-0.07963,-1.79692 2.94262,-3.3904 6.75039,-3.55912c3.80777,-0.16872 6.95911,1.15118 7.03874,2.94811z" data-paper-data="{&quot;origPos&quot;:null}" fill="#ff005d" stroke-width="0"/></g><g data-paper-data="{&quot;origPos&quot;:null,&quot;index&quot;:null}" fill="#ffffff" stroke-width="0.5"><path d="M177.00309,248.92845c0.09993,-0.04577 0.17215,-0.07128 0.17215,-0.07128c3.76908,-1.33113 7.30146,-0.80898 11.9732,-0.56645c2.67938,0.1391 5.88845,-0.0255 8.60551,-0.0255c5.80561,0 11.61121,0 17.41681,0c2.43024,0 4.30608,-0.23382 6.68865,-0.3185c11.39471,-0.40496 23.4399,-0.02323 34.9182,-0.02323c2.41631,0 5.94665,-0.23376 8.22461,0c2.34806,0.24095 2.47172,0.46961 4.24462,0.82694c4.84913,0.97735 8.67918,1.92312 12.94749,3.18229c1.53869,0.45392 3.73962,0.72581 4.83801,1.36692c0.96502,0.56327 1.10625,1.15828 2.23744,1.66798c2.31716,1.22752 3.349,2.63191 4.12689,4.06569c1.483,2.73343 2.80963,5.34839 1.71857,8.13918c-0.47136,1.2057 -0.09774,2.70396 -2.94266,3.60807c-0.85793,0.27265 -1.89496,0.46549 -2.84244,0.69823c-5.60647,1.18802 -12.66608,0.75483 -18.38159,-0.02641c-2.69296,-0.36809 -4.61339,-0.69711 -6.02385,-1.697c-1.23356,-0.87447 -2.73889,-1.85235 -3.66874,-2.7667c-0.13714,-0.13486 -0.29175,-0.26856 -0.4689,-0.39826c-0.46296,0.20286 -1.07836,0.42662 -1.36202,0.68103c-1.37421,0.97066 -0.52845,2.1225 -1.26824,3.24242c-2.39376,3.62375 -5.33684,8.17643 -15.29518,10.12531c-1.33552,0.23584 -3.58208,0.72372 -5.15485,0.7298c-4.00331,0.01549 -11.26314,-0.65593 -13.81855,-1.83328c-0.90593,-0.41739 -1.15125,-0.97098 -1.82008,-1.44085c-0.42721,-0.30014 -1.22892,-0.52078 -1.65307,-0.82146c-1.24133,-0.88 -0.9889,-1.59935 -1.37386,-2.52425c-0.41743,-1.0029 -0.9676,-1.87012 -0.9676,-2.90469c0,-0.4908 0,-0.98161 0,-1.4724c-0.52829,0.23622 -1.00362,0.49014 -1.37387,0.75025c-0.36303,0.25504 -0.32503,0.56594 -0.68546,0.82145c-1.16653,0.82696 -2.87992,1.34422 -4.45478,2.04257c-0.4064,0.18021 -1.2037,0.77557 -1.63296,0.89498c-4.10433,1.14177 -9.6106,0.87392 -13.39924,-0.21152c-1.15112,-0.40654 -3.0761,-0.87488 -3.8704,-1.36692c-0.86599,-0.53645 -0.98889,-1.18575 -1.60389,-1.7638c-1.16925,-1.099 -3.3222,-2.15737 -3.81849,-3.35432c-1.06688,-2.57306 -1.09173,-5.14598 -1.09173,-7.78817c0,-3.09528 1.73683,-6.80021 -7.0323,-8.62256c-0.52619,-0.10935 -2.66942,-0.21918 -3.40867,-0.30621c-1.73665,-0.20444 -3.46913,-0.1599 -5.25787,-0.23861l-0.06393,0.06775l-2.90281,-0.34173c0.4838,-0.59727 0.63701,-1.24118 1.4514,-1.79182c0.32079,-0.21689 3.60123,-0.2139 3.66776,-0.2147c1.46587,-0.01752 2.93577,-0.02174 4.40677,-0.02023z" data-paper-data="{&quot;origPos&quot;:null,&quot;index&quot;:null}"/><path d="M307.27707,248.45351c1.471,-0.0013 2.9409,0.00232 4.40676,0.01737c0.06653,0.00069 3.34697,-0.00188 3.66776,0.18443c0.81439,0.47299 0.9676,1.0261 1.4514,1.53916l-2.90281,0.29354l-0.06394,-0.05819c-1.78873,0.06762 -3.52122,0.02935 -5.25787,0.20496c-0.73924,0.07476 -2.88247,0.1691 -3.40866,0.26303c-8.76912,1.56538 -7.0323,4.74787 -7.0323,7.40667c0,2.26961 -0.02486,4.47971 -1.09174,6.68995c-0.49629,1.02817 -2.64924,1.93729 -3.81849,2.88132c-0.50984,0.41163 -0.68147,0.86534 -1.21866,1.271c-2.10551,0.18418 -3.54708,0.51218 -3.54708,0.51218c-1.29013,0.29354 -2.26739,0.82715 -3.87041,0.88062c-0.56788,0.01894 1.58596,-0.3503 1.05061,-0.41081c-1.06857,-0.12078 -2.24808,0.1273 -3.3866,0.14677c-2.765,0.04729 -5.56722,0.09174 -8.30762,-0.02951c-0.25266,-0.01118 -0.50333,-0.0249 -0.75232,-0.04077c-0.18098,-0.09511 -0.34692,-0.17875 -0.4744,-0.22731c-0.59191,-0.22546 -1.20339,-0.42895 -1.79805,-0.63285c0.04089,-0.04213 0.08154,-0.08428 0.12197,-0.12645c0.42694,-0.44534 0,-1.15247 0,-1.61447c0,-1.4677 0,-2.9354 0,-4.4031c0,-1.41433 -1.52577,-3.04392 -3.31088,-4.36596c-0.3612,-0.26749 -0.82405,-0.52072 -1.30588,-0.77093c0.36457,-0.06149 -0.22124,-0.52009 -0.22124,-0.73391c0,-0.14677 0,-0.29354 0,-0.44031c0,-0.80165 -1.05576,-1.54802 -1.2565,-2.32641c-0.50688,-1.96551 0.2889,-4.164 0.2889,-6.18625c0,-0.21055 0,-0.42109 0,-0.63164c1.2416,0.07083 2.46304,0.13818 3.87041,0.13818c5.80561,0 11.61121,0 17.41681,0c2.71706,0 5.92613,0.14139 8.60551,0.02191c4.67174,-0.20833 8.20412,-0.65686 11.9732,0.48657c0,0 0.07223,0.02191 0.17215,0.06123z" data-paper-data="{&quot;origPos&quot;:null,&quot;index&quot;:null}"/></g></g><g data-paper-data="{&quot;origPos&quot;:null,&quot;origRot&quot;:0}" stroke="none" stroke-linecap="butt"><g data-paper-data="{&quot;origPos&quot;:null,&quot;origRot&quot;:0}"><path d="M-4.16057,149.56909c-0.79494,-0.15785 -1.11323,-1.00205 -1.11323,-1.00205l0.36834,-0.18626c-0.11986,-0.06685 -0.24193,-0.1551 -0.365,-0.26896c-1.13834,-1.05325 -0.08509,-2.19159 -0.08509,-2.19159c3.55506,-3.84225 8.29129,-5.60525 13.42544,-6.31886c1.15352,-0.16033 2.63926,-0.30195 3.80926,-0.16782c0.78932,0.09049 1.60442,0.51416 2.39701,0.38336c2.46474,-0.05241 4.27971,1.23368 6.28713,2.41028c1.82967,1.07242 3.54874,1.82189 4.66733,3.80299c1.32855,2.35291 1.52967,5.39003 1.95904,7.99822c0.66206,4.02167 -1.26938,6.1664 -3.13496,9.40717c-0.40576,0.70486 -0.9005,2.70487 -1.7366,2.9532c-2.91478,0.86573 -4.61687,-1.02137 -6.75557,-2.55544c-5.04077,-3.6157 -10.08153,-7.23141 -15.1223,-10.84712c-1.55423,-1.11485 -3.10847,-2.22968 -4.6627,-3.34453z" fill="#e28f00" stroke-width="0.5"/><path d="M9.94597,143.461c0.74884,-1.04398 2.2022,-1.28324 3.24618,-0.5344c1.04398,0.74884 1.28323,2.2022 0.53439,3.24618c-0.74884,1.04398 -2.2022,1.28323 -3.24618,0.53439c-1.04398,-0.74884 -1.28324,-2.20219 -0.5344,-3.24617z" fill="#000000" stroke-width="0"/><path d="M18.43447,149.45429c0.72387,-1.00918 2.1288,-1.24045 3.13798,-0.51658c1.00918,0.72387 1.24046,2.12879 0.51658,3.13797c-0.72387,1.00918 -2.1288,1.24046 -3.13798,0.51659c-1.00918,-0.72387 -1.24046,-2.1288 -0.51658,-3.13798z" data-paper-data="{&quot;origPos&quot;:null}" fill="#000000" stroke-width="0"/><path d="M17.14613,158.16847c-1.04837,1.46157 -4.40897,0.84549 -7.5061,-1.37606c-3.09713,-2.22155 -4.75799,-5.20732 -3.70961,-6.66889c1.04837,-1.46157 4.40897,-0.84548 7.5061,1.37607c3.09714,2.22155 4.75798,5.20731 3.70961,6.66888z" data-paper-data="{&quot;origPos&quot;:null}" fill="#ff005d" stroke-width="0"/></g><g data-paper-data="{&quot;origPos&quot;:null,&quot;origRot&quot;:0}"><path d="M17.65725,165.98228c-0.79494,-0.15785 -1.11323,-1.00204 -1.11323,-1.00204l0.36834,-0.18626c-0.11987,-0.06685 -0.24194,-0.15511 -0.365,-0.26897c-1.13834,-1.05325 -0.08509,-2.19158 -0.08509,-2.19158c3.55506,-3.84225 8.29128,-5.60525 13.42543,-6.31886c1.15352,-0.16033 2.63926,-0.30195 3.80926,-0.16782c0.78932,0.09049 1.60442,0.51416 2.39701,0.38336c2.46474,-0.05241 4.27972,1.23368 6.28713,2.41028c1.82967,1.07242 3.54874,1.82189 4.66733,3.80299c1.32854,2.35291 1.52967,5.39003 1.95904,7.99821c0.66206,4.02167 -1.26938,6.1664 -3.13497,9.40717c-0.40576,0.70486 -0.9005,2.70488 -1.7366,2.95321c-2.91479,0.86573 -4.61686,-1.02137 -6.75557,-2.55544c-5.04077,-3.6157 -10.08153,-7.23142 -15.1223,-10.84712c-1.55423,-1.11485 -3.10848,-2.22968 -4.66271,-3.34453z" fill="#e28f00" stroke-width="0.5"/><path d="M31.7638,159.87419c0.74884,-1.04398 2.20219,-1.28324 3.24617,-0.5344c1.04398,0.74884 1.28324,2.2022 0.5344,3.24618c-0.74884,1.04398 -2.2022,1.28324 -3.24618,0.5344c-1.04398,-0.74884 -1.28323,-2.2022 -0.53439,-3.24618z" fill="#000000" stroke-width="0"/><path d="M40.25227,165.86749c0.72387,-1.00918 2.1288,-1.24047 3.13798,-0.51659c1.00918,0.72387 1.24046,2.1288 0.51658,3.13798c-0.72387,1.00918 -2.12879,1.24046 -3.13797,0.51659c-1.00918,-0.72387 -1.24046,-2.1288 -0.51659,-3.13798z" data-paper-data="{&quot;origPos&quot;:null}" fill="#000000" stroke-width="0"/><path d="M38.96395,174.58166c-1.04837,1.46157 -4.40897,0.84549 -7.50611,-1.37607c-3.09714,-2.22155 -4.75798,-5.20731 -3.70961,-6.66888c1.04838,-1.46157 4.40897,-0.84549 7.50611,1.37607c3.09714,2.22155 4.75798,5.20731 3.70961,6.66888z" data-paper-data="{&quot;origPos&quot;:null}" fill="#ff005d" stroke-width="0"/></g><g data-paper-data="{&quot;origPos&quot;:null,&quot;origRot&quot;:0}"><path d="M40.12164,183.62268c-0.79494,-0.15785 -1.11323,-1.00204 -1.11323,-1.00204l0.36834,-0.18626c-0.11986,-0.06685 -0.24194,-0.15511 -0.36501,-0.26897c-1.13833,-1.05325 -0.08508,-2.19159 -0.08508,-2.19159c3.55506,-3.84225 8.29128,-5.60525 13.42543,-6.31886c1.15351,-0.16033 2.63925,-0.30194 3.80926,-0.16781c0.78932,0.09049 1.60442,0.51416 2.39701,0.38336c2.46474,-0.05241 4.27972,1.23367 6.28713,2.41027c1.82967,1.07242 3.54873,1.82189 4.66733,3.80299c1.32855,2.35291 1.52967,5.39003 1.95905,7.99821c0.66206,4.02167 -1.26938,6.1664 -3.13496,9.40717c-0.40576,0.70486 -0.9005,2.70488 -1.7366,2.95321c-2.91478,0.86573 -4.61686,-1.02137 -6.75557,-2.55544c-5.04077,-3.6157 -10.08153,-7.23141 -15.1223,-10.84712c-1.55423,-1.11485 -3.10848,-2.22968 -4.66271,-3.34453z" fill="#e28f00" stroke-width="0.5"/><path d="M54.22819,177.51459c0.74884,-1.04398 2.2022,-1.28324 3.24618,-0.5344c1.04398,0.74884 1.28324,2.2022 0.5344,3.24618c-0.74884,1.04398 -2.2022,1.28324 -3.24618,0.5344c-1.04398,-0.74884 -1.28324,-2.2022 -0.5344,-3.24618z" fill="#000000" stroke-width="0"/><path d="M62.71666,183.5079c0.72388,-1.00918 2.1288,-1.24047 3.13798,-0.51659c1.00918,0.72387 1.24046,2.1288 0.51658,3.13798c-0.72388,1.00918 -2.12879,1.24046 -3.13797,0.51658c-1.00918,-0.72387 -1.24046,-2.12879 -0.51659,-3.13797z" data-paper-data="{&quot;origPos&quot;:null}" fill="#000000" stroke-width="0"/><path d="M61.42834,192.22207c-1.04837,1.46157 -4.40897,0.84548 -7.5061,-1.37607c-3.09714,-2.22155 -4.75799,-5.20731 -3.70961,-6.66888c1.04838,-1.46157 4.40897,-0.84548 7.50611,1.37607c3.09714,2.22155 4.75798,5.20731 3.70961,6.66888z" data-paper-data="{&quot;origPos&quot;:null}" fill="#ff005d" stroke-width="0"/></g><g data-paper-data="{&quot;origPos&quot;:null,&quot;origRot&quot;:0}"><path d="M64.31733,200.97808c-0.79494,-0.15785 -1.11323,-1.00204 -1.11323,-1.00204l0.36834,-0.18626c-0.11987,-0.06685 -0.24193,-0.15511 -0.365,-0.26897c-1.13833,-1.05325 -0.08509,-2.19159 -0.08509,-2.19159c3.55506,-3.84225 8.29129,-5.60525 13.42544,-6.31885c1.15351,-0.16033 2.63926,-0.30195 3.80926,-0.16782c0.78932,0.09049 1.60442,0.51416 2.39701,0.38336c2.46474,-0.05241 4.27972,1.23368 6.28713,2.41028c1.82967,1.07242 3.54874,1.82189 4.66733,3.80298c1.32855,2.35291 1.52967,5.39003 1.95904,7.99821c0.66206,4.02167 -1.26938,6.16641 -3.13497,9.40718c-0.40576,0.70486 -0.9005,2.70487 -1.73659,2.9532c-2.91478,0.86573 -4.61687,-1.02135 -6.75558,-2.55543c-5.04077,-3.6157 -10.08153,-7.23142 -15.1223,-10.84713c-1.55424,-1.11485 -3.10847,-2.22968 -4.66271,-3.34453z" fill="#e28f00" stroke-width="0.5"/><path d="M78.42388,194.86999c0.74884,-1.04398 2.2022,-1.28324 3.24618,-0.5344c1.04398,0.74884 1.28323,2.2022 0.53439,3.24618c-0.74884,1.04398 -2.20219,1.28323 -3.24617,0.53439c-1.04398,-0.74884 -1.28324,-2.20219 -0.5344,-3.24617z" fill="#000000" stroke-width="0"/><path d="M86.91236,200.86329c0.72388,-1.00918 2.12879,-1.24047 3.13797,-0.51659c1.00918,0.72387 1.24046,2.1288 0.51658,3.13798c-0.72388,1.00918 -2.12879,1.24046 -3.13797,0.51659c-1.00918,-0.72387 -1.24046,-2.1288 -0.51658,-3.13798z" data-paper-data="{&quot;origPos&quot;:null}" fill="#000000" stroke-width="0"/><path d="M85.62403,209.57747c-1.04838,1.46157 -4.40897,0.84548 -7.50611,-1.37607c-3.09713,-2.22155 -4.75798,-5.20731 -3.70961,-6.66888c1.04837,-1.46157 4.40897,-0.84549 7.5061,1.37607c3.09713,2.22155 4.75799,5.20731 3.70961,6.66888z" data-paper-data="{&quot;origPos&quot;:null}" fill="#ff005d" stroke-width="0"/></g><g data-paper-data="{&quot;origPos&quot;:null,&quot;index&quot;:null}" fill="#ffffff" stroke-width="0.5"><path d="M-6.02798,143.05163c0.10684,0.0258 0.17938,0.05041 0.17938,0.05041c3.7854,1.28402 6.23894,3.87832 9.76088,6.95727c2.01994,1.76587 4.64396,3.62052 6.77952,5.30035c4.56308,3.58934 9.12615,7.17869 13.68923,10.76803c1.91011,1.50251 3.52905,2.47848 5.45405,3.88495c9.20635,6.72654 18.4376,14.47357 27.45929,21.57008c1.89917,1.4939 4.81846,3.49282 6.46436,5.08491c1.69656,1.64108 1.65238,1.89725 2.82492,3.27421c3.20706,3.76617 5.63266,6.87748 8.20897,10.50606c0.92874,1.30808 2.49053,2.88251 2.95746,4.06548c0.41024,1.03934 0.15337,1.59433 0.72734,2.69431c1.06231,2.3974 1.00505,4.13916 0.73001,5.74701c-0.52435,3.06528 -1.09837,5.94079 -3.68133,7.45973c-1.11591,0.65623 -1.74856,2.06483 -4.54357,1.01655c-0.84288,-0.31612 -1.77719,-0.8057 -2.66578,-1.20856c-5.14106,-2.53247 -10.42193,-7.23758 -14.4312,-11.38527c-1.88903,-1.95424 -3.19503,-3.40017 -3.68543,-5.05808c-0.4289,-1.44996 -1.00749,-3.14924 -1.17303,-4.44278c-0.02441,-0.19078 -0.06326,-0.39146 -0.12231,-0.60292c-0.48929,-0.12679 -1.11132,-0.33139 -1.49157,-0.3068c-1.68022,-0.08669 -1.72761,1.34152 -3.00146,1.76438c-4.12185,1.36823 -9.24975,3.12696 -18.28169,-1.49805c-1.1955,-0.64033 -3.26287,-1.6458 -4.5028,-2.6134c-3.15609,-2.46288 -8.44705,-7.47905 -9.72764,-9.98431c-0.45399,-0.88816 -0.30454,-1.47493 -0.53973,-2.25776c-0.15022,-0.50002 -0.64393,-1.16911 -0.79141,-1.66766c-0.4316,-1.45912 0.21155,-1.86845 0.48081,-2.8334c0.29196,-1.04633 0.39569,-2.06809 1.03533,-2.88125c0.30344,-0.38576 0.60688,-0.77152 0.91032,-1.15728c-0.56127,-0.14095 -1.09186,-0.23526 -1.54368,-0.25972c-0.44302,-0.02399 -0.60537,0.24386 -1.04663,0.22185c-1.42814,-0.07124 -3.09462,-0.724 -4.76419,-1.14877c-0.43084,-0.10961 -1.42558,-0.13462 -1.83679,-0.30615c-3.93181,-1.64012 -8.09402,-5.25492 -10.40073,-8.45039c-0.65341,-1.03122 -1.87685,-2.58945 -2.19695,-3.46725c-0.34899,-0.95704 -0.04415,-1.54336 -0.17014,-2.37793c-0.23954,-1.58668 -1.27737,-3.74961 -0.92742,-4.99722c0.75227,-2.68197 2.32345,-4.7196 3.957,-6.7963c1.91367,-2.43282 5.56937,-4.27101 -0.1963,-11.1249c-0.34597,-0.41126 -1.9626,-1.82265 -2.48982,-2.3481c-1.23857,-1.23438 -2.62781,-2.27049 -3.98504,-3.43824l-0.09214,0.01372l-2.07027,-2.06327c0.74953,-0.17033 1.26805,-0.5817 2.24858,-0.511c0.38623,0.02785 2.96273,2.05835 3.01552,2.09886c1.16297,0.89251 2.32089,1.79797 3.47613,2.70861z" data-paper-data="{&quot;origPos&quot;:null,&quot;index&quot;:null}"/><path d="M96.65813,223.22083c1.15698,0.90843 2.31005,1.82005 3.45288,2.73816c0.05187,0.04167 2.63181,2.0678 2.76875,2.41256c0.34766,0.87527 0.12613,1.40472 0.18918,2.10708l-2.46303,-1.56396l-0.01427,-0.08526c-1.44771,-1.05274 -2.78575,-2.15394 -4.25929,-3.08961c-0.62725,-0.39828 -2.37011,-1.64919 -2.84175,-1.90069c-7.86014,-4.1912 -8.46262,-0.61603 -10.10644,1.47373c-1.40319,1.78386 -2.78914,3.50559 -4.99417,4.58318c-1.02574,0.50128 -3.27999,-0.11524 -4.78264,-0.09615c-0.65522,0.00833 -1.07062,0.25881 -1.74364,0.24553c-1.76875,-1.15698 -3.10458,-1.79044 -3.10458,-1.79044c-1.19549,-0.56691 -2.29351,-0.7517 -3.5865,-1.70075c-0.45806,-0.33621 1.46311,0.70521 1.07975,0.32666c-0.7652,-0.75558 -1.84564,-1.28984 -2.75253,-1.97843c-2.20247,-1.67231 -4.43244,-3.36985 -6.51137,-5.15941c-0.19167,-0.165 -0.38021,-0.33075 -0.5661,-0.49717c-0.08344,-0.18664 -0.16216,-0.35499 -0.23234,-0.47197c-0.32583,-0.54316 -0.68064,-1.08114 -1.02196,-1.60905c0.05819,-0.00784 0.1162,-0.01583 0.17404,-0.02398c0.6109,-0.08607 0.71252,-0.90582 0.99815,-1.26894c0.90741,-1.15358 1.81482,-2.30715 2.72223,-3.46073c0.87441,-1.11163 0.6827,-3.33576 0.097,-5.47851c-0.11851,-0.43356 -0.32575,-0.91875 -0.54977,-1.4133c0.32455,0.17707 0.14766,-0.54556 0.27985,-0.71362c0.09074,-0.11536 0.18148,-0.23071 0.27222,-0.34607c0.49562,-0.63009 0.12728,-1.86944 0.45074,-2.60534c0.81679,-1.85823 2.80147,-3.0942 4.05174,-4.68364c0.13017,-0.16549 0.26035,-0.33097 0.39052,-0.49646c0.93207,0.8233 1.85046,1.63139 2.95662,2.50151c4.56307,3.58934 9.12615,7.17869 13.68923,10.76803c2.13555,1.67983 4.57039,3.77499 6.7502,5.33762c3.80069,2.72458 6.85436,4.55596 9.10985,7.78492c0,0 0.04322,0.06188 0.09745,0.15456z" data-paper-data="{&quot;origPos&quot;:null,&quot;index&quot;:null}"/></g></g><g data-paper-data="{&quot;origPos&quot;:null,&quot;origRot&quot;:0,&quot;index&quot;:null}" stroke="none" stroke-linecap="butt"><g data-paper-data="{&quot;origPos&quot;:null,&quot;origRot&quot;:0}"><path d="M490.53576,148.64169c-1.55424,1.11485 -3.10847,2.22968 -4.6627,3.34453c-5.04077,3.6157 -10.08154,7.23141 -15.12231,10.84712c-2.13871,1.53408 -3.84079,3.42118 -6.75557,2.55544c-0.8361,-0.24833 -1.33084,-2.24835 -1.7366,-2.9532c-1.86559,-3.24077 -3.79702,-5.38549 -3.13496,-9.40717c0.42937,-2.60818 0.63049,-5.64531 1.95904,-7.99822c1.1186,-1.9811 2.83766,-2.73057 4.66733,-3.80299c2.00741,-1.1766 3.82238,-2.46269 6.28713,-2.41028c0.79259,0.1308 1.60769,-0.29287 2.39701,-0.38336c1.17,-0.13413 2.65574,0.00749 3.80926,0.16782c5.13415,0.7136 9.87037,2.4766 13.42543,6.31886c0,0 1.05325,1.13834 -0.08509,2.19159c-0.12307,0.11386 -0.24514,0.20212 -0.365,0.26896l0.36834,0.18626c0,0 -0.3183,0.8442 -1.11324,1.00205z" fill="#e28f00" stroke-width="0.5"/><path d="M475.83288,145.70717c-1.04398,0.74884 -2.49734,0.50959 -3.24617,-0.53439c-0.74884,-1.04398 -0.50958,-2.49734 0.5344,-3.24618c1.04398,-0.74884 2.49734,-0.50958 3.24618,0.5344c0.74884,1.04398 0.50958,2.49733 -0.5344,3.24617z" fill="#000000" stroke-width="0"/><path d="M467.3622,151.59227c-1.00918,0.72387 -2.4141,0.49259 -3.13798,-0.51659c-0.72388,-1.00918 -0.49259,-2.4141 0.51659,-3.13797c1.00918,-0.72387 2.4141,-0.4926 3.13797,0.51658c0.72388,1.00918 0.4926,2.41411 -0.51658,3.13798z" data-paper-data="{&quot;origPos&quot;:null}" fill="#000000" stroke-width="0"/><path d="M472.87674,150.49959c3.09713,-2.22155 6.45773,-2.83764 7.5061,-1.37607c1.04838,1.46157 -0.61248,4.44733 -3.70961,6.66889c-3.09713,2.22155 -6.45773,2.83763 -7.5061,1.37606c-1.04838,-1.46157 0.61248,-4.44733 3.70961,-6.66888z" data-paper-data="{&quot;origPos&quot;:null}" fill="#ff005d" stroke-width="0"/></g><g data-paper-data="{&quot;origPos&quot;:null,&quot;origRot&quot;:0}"><path d="M468.71794,165.05487c-1.55424,1.11485 -3.10847,2.22968 -4.66271,3.34453c-5.04077,3.6157 -10.08153,7.23142 -15.1223,10.84712c-2.13871,1.53408 -3.84079,3.42118 -6.75558,2.55544c-0.8361,-0.24833 -1.33083,-2.24835 -1.73659,-2.95321c-1.86559,-3.24077 -3.79703,-5.38549 -3.13497,-9.40717c0.42937,-2.60818 0.63049,-5.6453 1.95904,-7.99821c1.1186,-1.9811 2.83766,-2.73057 4.66733,-3.80299c2.00741,-1.1766 3.82238,-2.46269 6.28713,-2.41028c0.79259,0.1308 1.60769,-0.29288 2.39701,-0.38336c1.17,-0.13413 2.65574,0.0075 3.80926,0.16782c5.13415,0.7136 9.87037,2.4766 13.42543,6.31886c0,0 1.05324,1.13833 -0.08509,2.19158c-0.12307,0.11386 -0.24514,0.20212 -0.365,0.26897l0.36834,0.18626c0,0 -0.31829,0.84419 -1.11323,1.00204z" fill="#e28f00" stroke-width="0.5"/><path d="M454.01506,162.12036c-1.04398,0.74884 -2.49734,0.50958 -3.24617,-0.5344c-0.74884,-1.04398 -0.50958,-2.49734 0.5344,-3.24618c1.04398,-0.74884 2.49734,-0.50958 3.24617,0.5344c0.74884,1.04398 0.50958,2.49734 -0.5344,3.24618z" fill="#000000" stroke-width="0"/><path d="M445.5444,168.00546c-1.00918,0.72387 -2.4141,0.49259 -3.13797,-0.51659c-0.72388,-1.00918 -0.4926,-2.41411 0.51658,-3.13798c1.00918,-0.72387 2.4141,-0.49259 3.13798,0.51659c0.72388,1.00918 0.49259,2.4141 -0.51659,3.13798z" data-paper-data="{&quot;origPos&quot;:null}" fill="#000000" stroke-width="0"/><path d="M451.05891,166.91278c3.09713,-2.22155 6.45773,-2.83764 7.50611,-1.37607c1.04838,1.46157 -0.61248,4.44733 -3.70961,6.66888c-3.09713,2.22155 -6.45773,2.83764 -7.5061,1.37607c-1.04838,-1.46157 0.61247,-4.44733 3.70961,-6.66888z" data-paper-data="{&quot;origPos&quot;:null}" fill="#ff005d" stroke-width="0"/></g><g data-paper-data="{&quot;origPos&quot;:null,&quot;origRot&quot;:0}"><path d="M446.25354,182.69528c-1.55424,1.11485 -3.10847,2.22968 -4.66271,3.34453c-5.04077,3.6157 -10.08153,7.23141 -15.1223,10.84712c-2.13871,1.53408 -3.84079,3.42118 -6.75557,2.55544c-0.8361,-0.24833 -1.33084,-2.24835 -1.7366,-2.95321c-1.86559,-3.24077 -3.79702,-5.38549 -3.13496,-9.40717c0.42937,-2.60818 0.6305,-5.6453 1.95905,-7.99821c1.1186,-1.9811 2.83765,-2.73057 4.66732,-3.80299c2.00741,-1.1766 3.82239,-2.46269 6.28713,-2.41027c0.79259,0.1308 1.60769,-0.29288 2.39701,-0.38336c1.17,-0.13413 2.65574,0.00749 3.80926,0.16781c5.13415,0.7136 9.87037,2.4766 13.42543,6.31886c0,0 1.05325,1.13834 -0.08508,2.19159c-0.12307,0.11386 -0.24514,0.20212 -0.365,0.26897l0.36834,0.18626c0,0 -0.31829,0.84419 -1.11323,1.00204z" fill="#e28f00" stroke-width="0.5"/><path d="M431.55067,179.76077c-1.04398,0.74884 -2.49734,0.50958 -3.24618,-0.5344c-0.74884,-1.04398 -0.50958,-2.49734 0.5344,-3.24618c1.04398,-0.74884 2.49734,-0.50958 3.24617,0.5344c0.74884,1.04398 0.50959,2.49734 -0.53439,3.24618z" fill="#000000" stroke-width="0"/><path d="M423.08,185.64587c-1.00918,0.72387 -2.4141,0.49259 -3.13798,-0.51658c-0.72388,-1.00918 -0.49259,-2.4141 0.51659,-3.13798c1.00918,-0.72387 2.4141,-0.49259 3.13797,0.51659c0.72388,1.00918 0.4926,2.4141 -0.51658,3.13797z" data-paper-data="{&quot;origPos&quot;:null}" fill="#000000" stroke-width="0"/><path d="M428.59452,184.55319c3.09713,-2.22155 6.45773,-2.83764 7.50611,-1.37607c1.04838,1.46157 -0.61248,4.44733 -3.70961,6.66888c-3.09713,2.22155 -6.45773,2.83764 -7.50611,1.37607c-1.04838,-1.46157 0.61248,-4.44733 3.70961,-6.66888z" data-paper-data="{&quot;origPos&quot;:null}" fill="#ff005d" stroke-width="0"/></g><g data-paper-data="{&quot;origPos&quot;:null,&quot;origRot&quot;:0}"><path d="M422.05785,200.05068c-1.55424,1.11485 -3.10847,2.22968 -4.66271,3.34453c-5.04077,3.6157 -10.08153,7.23142 -15.1223,10.84713c-2.13871,1.53408 -3.84079,3.42117 -6.75558,2.55543c-0.8361,-0.24833 -1.33084,-2.24834 -1.7366,-2.9532c-1.86559,-3.24077 -3.79702,-5.3855 -3.13496,-9.40718c0.42937,-2.60818 0.63049,-5.6453 1.95904,-7.99821c1.1186,-1.9811 2.83766,-2.73057 4.66733,-3.80298c2.00741,-1.1766 3.82238,-2.46269 6.28713,-2.41028c0.79259,0.1308 1.60769,-0.29288 2.39701,-0.38336c1.17,-0.13413 2.65574,0.0075 3.80926,0.16782c5.13415,0.7136 9.87037,2.4766 13.42543,6.31885c0,0 1.05325,1.13834 -0.08509,2.19159c-0.12307,0.11386 -0.24514,0.20212 -0.365,0.26897l0.36834,0.18626c0,0 -0.31829,0.84419 -1.11323,1.00204z" fill="#e28f00" stroke-width="0.5"/><path d="M407.35498,197.11616c-1.04398,0.74884 -2.49734,0.50959 -3.24617,-0.53439c-0.74884,-1.04398 -0.50959,-2.49734 0.53439,-3.24618c1.04398,-0.74884 2.49734,-0.50958 3.24618,0.5344c0.74884,1.04398 0.50958,2.49733 -0.5344,3.24617z" fill="#000000" stroke-width="0"/><path d="M398.88431,203.00126c-1.00918,0.72387 -2.4141,0.49259 -3.13798,-0.51659c-0.72388,-1.00918 -0.49259,-2.41411 0.51659,-3.13798c1.00918,-0.72387 2.4141,-0.49259 3.13797,0.51659c0.72388,1.00918 0.4926,2.4141 -0.51658,3.13798z" data-paper-data="{&quot;origPos&quot;:null}" fill="#000000" stroke-width="0"/><path d="M404.39883,201.90858c3.09713,-2.22155 6.45773,-2.83764 7.5061,-1.37607c1.04838,1.46157 -0.61248,4.44733 -3.70961,6.66888c-3.09713,2.22155 -6.45773,2.83764 -7.5061,1.37607c-1.04838,-1.46157 0.61248,-4.44733 3.70961,-6.66888z" data-paper-data="{&quot;origPos&quot;:null}" fill="#ff005d" stroke-width="0"/></g><g data-paper-data="{&quot;origPos&quot;:null,&quot;index&quot;:null}" fill="#ffffff" stroke-width="0.5"><path d="M492.3412,142.05166c1.15524,-0.91064 2.31315,-1.8161 3.47612,-2.70861c0.05278,-0.04051 2.62928,-2.07101 3.01551,-2.09886c0.98053,-0.07071 1.49905,0.34067 2.24858,0.511l-2.07027,2.06327l-0.09214,-0.01372c-1.35724,1.16776 -2.74648,2.20387 -3.98505,3.43824c-0.52722,0.52544 -2.14385,1.93683 -2.48982,2.3481c-5.76566,6.85388 -2.10996,8.69208 -0.19629,11.1249c1.63355,2.07671 3.20472,4.11433 3.95699,6.7963c0.34995,1.24761 -0.68788,3.41054 -0.92742,4.99722c-0.12599,0.83456 0.17885,1.42088 -0.17014,2.37793c-0.32009,0.8778 -1.54354,2.43604 -2.19695,3.46725c-2.30671,3.19547 -6.46891,6.81027 -10.40072,8.45039c-0.41122,0.17153 -1.40596,0.19654 -1.83679,0.30615c-1.66957,0.42478 -3.33605,1.07753 -4.76419,1.14877c-0.44126,0.02201 -0.60361,-0.24584 -1.04663,-0.22185c-0.45182,0.02446 -0.98241,0.11877 -1.54368,0.25972c0.30344,0.38576 0.60688,0.77152 0.91032,1.15728c0.63963,0.81315 0.74336,1.83491 1.03533,2.88125c0.26925,0.96496 0.9124,1.37428 0.4808,2.8334c-0.14747,0.49856 -0.64119,1.16764 -0.7914,1.66766c-0.23519,0.78283 -0.08574,1.3696 -0.53973,2.25776c-1.28059,2.50526 -6.57155,7.52142 -9.72764,9.98431c-1.23993,0.96759 -3.30731,1.97307 -4.5028,2.6134c-9.03195,4.62501 -14.15985,2.86628 -18.28169,1.49805c-1.27386,-0.42285 -1.32124,-1.85107 -3.00146,-1.76438c-0.38025,-0.02459 -1.00227,0.18001 -1.49156,0.3068c-0.05905,0.21146 -0.0979,0.41214 -0.12232,0.60292c-0.16553,1.29354 -0.74412,2.99281 -1.17302,4.44278c-0.49041,1.65791 -1.7964,3.10383 -3.68543,5.05808c-4.00927,4.14768 -9.29013,8.8528 -14.4312,11.38527c-0.8886,0.40286 -1.82291,0.89244 -2.66578,1.20856c-2.79501,1.04828 -3.42766,-0.36032 -4.54357,-1.01655c-2.58297,-1.51895 -3.15697,-4.39445 -3.68133,-7.45973c-0.27504,-1.60785 -0.3323,-3.34961 0.73001,-5.74701c0.57397,-1.09998 0.31711,-1.65496 0.72735,-2.69431c0.46693,-1.18297 2.02873,-2.75741 2.95747,-4.06548c2.57631,-3.62858 5.00191,-6.73989 8.20898,-10.50606c1.17253,-1.37696 1.12836,-1.63313 2.82491,-3.27421c1.6459,-1.59208 4.56519,-3.59101 6.46436,-5.08491c9.02169,-7.09651 18.25294,-14.84354 27.45929,-21.57008c1.925,-1.40648 3.54394,-2.38245 5.45405,-3.88495c4.56308,-3.58934 9.12615,-7.17869 13.68923,-10.76803c2.13555,-1.67983 4.75957,-3.53448 6.77952,-5.30035c3.52194,-3.07895 5.97548,-5.67325 9.76087,-6.95727c0,0 0.07254,-0.02461 0.17938,-0.05041z" data-paper-data="{&quot;origPos&quot;:null,&quot;index&quot;:null}"/><path d="M389.65509,222.22086c0.05423,-0.09268 0.09745,-0.15456 0.09745,-0.15456c2.25549,-3.22896 5.30917,-5.06034 9.10985,-7.78492c2.17981,-1.56263 4.61464,-3.65779 6.7502,-5.33762c4.56308,-3.58934 9.12615,-7.17869 13.68923,-10.76803c1.10616,-0.87011 2.02454,-1.67821 2.95662,-2.50151c0.13018,0.16549 0.26034,0.33097 0.39052,0.49646c1.25027,1.58945 3.23496,2.82542 4.05174,4.68364c0.32346,0.73591 -0.04489,1.97526 0.45074,2.60534c0.09074,0.11536 0.18148,0.23071 0.27222,0.34607c0.1322,0.16806 -0.0447,0.89069 0.27985,0.71362c-0.22402,0.49455 -0.43126,0.97975 -0.54977,1.4133c-0.58571,2.14275 -0.77742,4.36688 0.097,5.47851c0.90741,1.15358 1.81482,2.30715 2.72224,3.46073c0.28564,0.36312 0.38725,1.18287 0.99815,1.26894c0.05784,0.00815 0.11585,0.01614 0.17404,0.02398c-0.34132,0.52791 -0.69612,1.06589 -1.02196,1.60905c-0.07018,0.11698 -0.14889,0.28533 -0.23234,0.47197c-0.18589,0.16642 -0.37443,0.33218 -0.5661,0.49717c-2.07893,1.78957 -4.30889,3.4871 -6.51136,5.15941c-0.90689,0.68859 -1.98734,1.22285 -2.75254,1.97843c-0.38337,0.37855 1.5378,-0.66287 1.07975,-0.32666c-1.29299,0.94905 -2.39101,1.13384 -3.5865,1.70075c0,0 -1.33583,0.63346 -3.10458,1.79044c-0.67302,0.01328 -1.08842,-0.2372 -1.74364,-0.24553c-1.50265,-0.01909 -3.7569,0.59743 -4.78264,0.09615c-2.20502,-1.07759 -3.59098,-2.79932 -4.99417,-4.58318c-1.64382,-2.08976 -2.2463,-5.66493 -10.10644,-1.47373c-0.47165,0.2515 -2.21451,1.50241 -2.84176,1.90069c-1.47355,0.93566 -2.81158,2.03686 -4.25929,3.08961l-0.01427,0.08526l-2.46303,1.56396c0.06306,-0.70236 -0.15848,-1.23181 0.18918,-2.10708c0.13695,-0.34476 2.71688,-2.37089 2.76875,-2.41256c1.14283,-0.9181 2.29591,-1.82972 3.45288,-2.73816z" data-paper-data="{&quot;origPos&quot;:null,&quot;index&quot;:null}"/></g></g><g data-paper-data="{&quot;origPos&quot;:null,&quot;index&quot;:null}" stroke="none" stroke-linecap="butt"><path d="M177.01799,-7.02149c8.05673,0 16.1134,0 24.17013,0c26.12987,0 52.25974,0 78.38961,0c11.08646,0 21.54512,-2.2802 29.3961,7.83896c2.25203,2.90266 -0.96482,10.96276 -1.30649,14.37143c-1.57101,15.67236 -0.22574,27.75494 -12.36528,39.89448c-7.8729,7.8729 -16.01764,17.77422 -26.34144,22.56586c-8.69236,4.03445 -16.41619,2.37923 -25.31148,1.55784c-9.75943,-0.90119 -19.129,-0.95518 -27.43636,-7.18571c-2.39167,-2.39355 -6.2217,-2.9446 -9.14545,-4.57273c-4.33382,-2.41333 -9.07143,-6.54569 -12.62593,-9.9264c-15.8207,-15.04717 -27.70307,-32.70919 -30.43793,-54.58801c0,0 -0.81026,-6.48201 5.67175,-7.29227c0.70078,-0.08759 1.33526,-0.08997 1.90962,-0.02448l-0.80344,-1.54182c0,0 3.162,-2.10797 6.27036,-0.6966z" fill="#e28f00" stroke-width="0.5"/><path d="M220.13703,39.11915c5.41168,0 9.7987,4.38702 9.7987,9.7987c0,5.41168 -4.38702,9.7987 -9.7987,9.7987c-5.41168,0 -9.7987,-4.38702 -9.7987,-9.7987c0,-5.41168 4.38702,-9.7987 9.7987,-9.7987z" fill="#000000" stroke-width="0"/><path d="M263.57793,39.7724c5.23128,0 9.47208,4.2408 9.47208,9.47208c0,5.23128 -4.2408,9.47208 -9.47208,9.47208c-5.23128,0 -9.47208,-4.2408 -9.47208,-9.47208c0,-5.23128 4.2408,-9.47208 9.47208,-9.47208z" data-paper-data="{&quot;origPos&quot;:null}" fill="#000000" stroke-width="0"/><path d="M242.02079,29.9737c-16.05464,0 -29.06948,-6.14183 -29.06948,-13.71818c0,-7.57636 13.01484,-13.71818 29.06948,-13.71818c16.05464,0 29.06948,6.14183 29.06948,13.71818c0,7.57636 -13.01484,13.71818 -29.06948,13.71818z" data-paper-data="{&quot;origPos&quot;:null}" fill="#ff005d" stroke-width="0"/></g><g data-paper-data="{&quot;origPos&quot;:null,&quot;origRot&quot;:0}" stroke="none" stroke-linecap="butt"><path d="M-5.88561,91.00548c-0.72851,-1.20897 0.5241,-2.38802 0.5241,-2.38802l0.85049,0.32936c-0.02473,-0.22059 -0.01002,-0.46321 0.05404,-0.72996c0.59251,-2.46734 4.2222,-2.06457 4.2222,-2.06457c12.25134,1.35946 21.93746,6.15683 30.06943,12.42287c1.82704,1.40782 4.05202,3.27887 5.31839,4.97086c0.85434,1.14148 1.08361,2.61412 2.3798,3.56308c3.33015,3.26632 3.16298,6.85035 3.46423,10.59562c0.27458,3.41364 1.04296,6.39123 -1.41008,9.65768c-2.91343,3.87952 -8.65561,6.85245 -13.25088,9.7505c-7.08563,4.46861 -13.85492,3.78097 -22.70529,4.15717c-1.92492,0.08182 -6.52734,1.19654 -8.11289,0.29369c-5.5275,-3.14752 -4.02417,-7.1146 -3.79043,-11.35445c0.5509,-9.99299 1.10179,-19.98597 1.65269,-29.97896c0.16986,-3.08118 0.33972,-6.16233 0.50958,-9.24351z" fill="#e28f00" stroke-width="0.5"/><path d="M24.65868,104.53141c3.0446,0.07756 5.42025,1.81818 5.30615,3.8878c-0.11409,2.06962 -2.67472,3.6845 -5.71932,3.60694c-3.0446,-0.07756 -5.42025,-1.81818 -5.30615,-3.8878c0.11409,-2.06962 2.67472,-3.6845 5.71932,-3.60694z" fill="#000000" stroke-width="0"/><path d="M23.91969,121.27434c2.94311,0.07497 5.23957,1.75758 5.12928,3.75821c-0.11029,2.00063 -2.58557,3.56168 -5.52868,3.48671c-2.94311,-0.07497 -5.23957,-1.75758 -5.12928,-3.75821c0.11029,-2.00063 2.58557,-3.56168 5.52868,-3.48671z" data-paper-data="{&quot;origPos&quot;:null}" fill="#000000" stroke-width="0"/><path d="M5.00205,127.297c-4.26245,-0.10858 -7.44344,-5.17394 -7.10496,-11.3138c0.33848,-6.13986 4.06826,-11.02918 8.33071,-10.92059c4.26245,0.10858 7.44344,5.17394 7.10496,11.3138c-0.33848,6.13986 -4.06826,11.02918 -8.33071,10.92059z" data-paper-data="{&quot;origPos&quot;:null}" fill="#ff005d" stroke-width="0"/></g><g data-paper-data="{&quot;origPos&quot;:null,&quot;origRot&quot;:0,&quot;index&quot;:null}" stroke="none" stroke-linecap="butt"><path d="M485.80665,88.98683c0.16986,3.08118 0.33972,6.16234 0.50958,9.24352c0.55089,9.99298 1.10179,19.98597 1.65269,29.97896c0.23373,4.23986 1.73707,8.20694 -3.79043,11.35446c-1.58555,0.90285 -6.18798,-0.21187 -8.1129,-0.29369c-8.85037,-0.3762 -15.61966,0.31144 -22.70529,-4.15717c-4.59527,-2.89804 -10.33746,-5.87098 -13.25088,-9.7505c-2.45304,-3.26645 -1.68465,-6.24403 -1.41008,-9.65768c0.30125,-3.74526 0.13408,-7.3293 3.46423,-10.59562c1.29618,-0.94896 1.52546,-2.4216 2.3798,-3.56308c1.26637,-1.692 3.49135,-3.56304 5.31839,-4.97086c8.13198,-6.26604 17.81808,-11.06341 30.06943,-12.42287c0,0 3.62969,-0.40277 4.2222,2.06457c0.06405,0.26675 0.07877,0.50936 0.05403,0.72995l0.85049,-0.32936c0,0 1.25261,1.17905 0.5241,2.38802z" fill="#e28f00" stroke-width="0.5"/><path d="M460.75706,106.13835c0.11409,2.06961 -2.26155,3.81024 -5.30616,3.8878c-3.0446,0.07756 -5.60523,-1.53733 -5.71932,-3.60694c-0.1141,-2.06961 2.26155,-3.81024 5.30615,-3.8878c3.0446,-0.07756 5.60523,1.53732 5.71933,3.60694z" fill="#000000" stroke-width="0"/><path d="M461.3054,122.76105c0.11029,2.00062 -2.18617,3.68324 -5.12928,3.75821c-2.94311,0.07497 -5.41839,-1.48609 -5.52868,-3.48671c-0.11029,-2.00062 2.18617,-3.68323 5.12928,-3.7582c2.94311,-0.07497 5.41839,1.48608 5.52868,3.48671z" data-paper-data="{&quot;origPos&quot;:null}" fill="#000000" stroke-width="0"/><path d="M466.36365,114.3764c-0.33848,-6.13986 2.84251,-11.20522 7.10496,-11.3138c4.26245,-0.10858 7.99222,4.78074 8.3307,10.9206c0.33848,6.13986 -2.84251,11.20522 -7.10496,11.3138c-4.26245,0.10858 -7.99222,-4.78074 -8.3307,-10.9206z" data-paper-data="{&quot;origPos&quot;:null}" fill="#ff005d" stroke-width="0"/></g><path d="M171.51247,90.36443l14,-54" fill="none" stroke="#e28f00" stroke-width="5" stroke-linecap="round"/><path d="M306.51247,88.36443l-11,-43" data-paper-data="{&quot;origPos&quot;:null}" fill="none" stroke="#e28f00" stroke-width="5" stroke-linecap="round"/><g stroke="none" stroke-linecap="butt"><path d="M139.51247,114.36443v-35h204v35z" data-paper-data="{&quot;origPos&quot;:null}" fill="#ffa200" stroke-width="0"/><text transform="translate(144.51247,101.80385) scale(0.37524,0.37524)" font-size="40" xml:space="preserve" data-paper-data="{&quot;origPos&quot;:null}" fill="#000000" fill-rule="nonzero" stroke="none" stroke-width="1" stroke-linecap="butt" stroke-linejoin="miter" stroke-miterlimit="10" stroke-dasharray="" stroke-dashoffset="0" font-family="Serif" font-weight="normal" text-anchor="start" style="mix-blend-mode: normal"><tspan x="0" dy="0">WELCOME TO MOLE LAND!</tspan></text></g></g><g data-paper-data="{&quot;origPos&quot;:null,&quot;index&quot;:null,&quot;origRot&quot;:0}" stroke-linecap="butt"><path d="M188.42365,74.15818c-2.13255,-0.68342 -3.30731,-2.9662 -2.62389,-5.09876c0.68342,-2.13255 2.96621,-3.3073 5.09876,-2.62389c2.13255,0.68342 3.30731,2.9662 2.62389,5.09876c-0.68342,2.13255 -2.96621,3.3073 -5.09876,2.62389z" data-paper-data="{&quot;origPos&quot;:null}" fill="none" stroke="#b0b0b0" stroke-width="5"/><path d="M189.66458,64.79154c0,0 0.80325,-1.85603 1.79766,-2.6032c0.87065,-0.65418 2.98133,-0.98755 2.98133,-0.98755c0,0 -0.98098,1.42943 -1.30535,2.44161c-0.2566,0.80067 -0.1833,2.2036 -0.1833,2.2036z" data-paper-data="{&quot;origPos&quot;:null}" fill="#b0b0b0" stroke="none" stroke-width="0"/><path d="M189.64319,75.94696c0,0 -0.80325,1.85603 -1.79766,2.6032c-0.87065,0.65418 -2.98133,0.98756 -2.98133,0.98756c0,0 0.98099,-1.42943 1.30536,-2.44161c0.2566,-0.80067 0.18329,-2.2036 0.18329,-2.2036z" data-paper-data="{&quot;origPos&quot;:null,&quot;index&quot;:null}" fill="#b0b0b0" stroke="none" stroke-width="0"/><path d="M184.05279,70.31441c0,0 -1.85594,-0.80345 -2.603,-1.79794c-0.65408,-0.87072 -0.98724,-2.98143 -0.98724,-2.98143c0,0 1.42932,0.98115 2.44146,1.30562c0.80065,0.25667 2.20358,0.18351 2.20358,0.18351z" data-paper-data="{&quot;origPos&quot;:null,&quot;index&quot;:null,&quot;origRot&quot;:0}" fill="#b0b0b0" stroke="none" stroke-width="0"/><path d="M195.11701,70.15663c0,0 1.85594,0.80345 2.603,1.79794c0.65408,0.87072 0.98724,2.98143 0.98724,2.98143c0,0 -1.42932,-0.98114 -2.44146,-1.30562c-0.80065,-0.25667 -2.20358,-0.18353 -2.20358,-0.18353z" data-paper-data="{&quot;origPos&quot;:null,&quot;index&quot;:null,&quot;origRot&quot;:0}" fill="#b0b0b0" stroke="none" stroke-width="0"/><path d="M193.80408,66.54439c0,0 1.89484,-0.70682 3.12259,-0.50748c1.07495,0.17452 2.77779,1.46544 2.77779,1.46544c0,0 -1.7104,0.28308 -2.66498,0.7505c-0.75512,0.36976 -1.71591,1.39467 -1.71591,1.39467z" data-paper-data="{&quot;origPos&quot;:null,&quot;origRot&quot;:0}" fill="#b0b0b0" stroke="none" stroke-width="0"/><path d="M185.74559,74.25831c0,0 -1.89484,0.70682 -3.12259,0.50748c-1.07495,-0.17452 -2.77778,-1.46545 -2.77778,-1.46545c0,0 1.7104,-0.28308 2.66498,-0.75049c0.75512,-0.36976 1.71591,-1.39467 1.71591,-1.39467z" data-paper-data="{&quot;origPos&quot;:null,&quot;index&quot;:null,&quot;origRot&quot;:0}" fill="#b0b0b0" stroke="none" stroke-width="0"/><path d="M185.93349,66.32465c0,0 -0.70661,-1.89491 -0.50714,-3.12266c0.17464,-1.07493 1.46574,-2.77763 1.46574,-2.77763c0,0 0.2829,1.71043 0.75022,2.66506c0.36967,0.75516 1.39448,1.71606 1.39448,1.71606z" data-paper-data="{&quot;origPos&quot;:null,&quot;index&quot;:null,&quot;origRot&quot;:0}" fill="#b0b0b0" stroke="none" stroke-width="0"/><path d="M193.71343,74.19323c0,0 0.70661,1.89491 0.50714,3.12266c-0.17464,1.07493 -1.46574,2.77763 -1.46574,2.77763c0,0 -0.28289,-1.71044 -0.75022,-2.66507c-0.36967,-0.75516 -1.39448,-1.71605 -1.39448,-1.71605z" data-paper-data="{&quot;origPos&quot;:null,&quot;index&quot;:null,&quot;origRot&quot;:0}" fill="#b0b0b0" stroke="none" stroke-width="0"/></g></g></g></svg>