<svg version="1.1" xmlns="http://www.w3.org/2000/svg" xmlns:xlink="http://www.w3.org/1999/xlink" width="549.70842" height="328.38328"><g transform="translate(33.35422,-32.55835)"><g data-paper-data="{&quot;isPaintingLayer&quot;:true}" fill="none" fill-rule="nonzero" stroke="none" stroke-width="none" stroke-linecap="none" stroke-linejoin="miter" stroke-miterlimit="10" stroke-dasharray="" stroke-dashoffset="0" font-family="none" font-weight="none" font-size="none" text-anchor="none" style="mix-blend-mode: normal"><path d="M184.49999,212.10484v-14h113v14z" data-paper-data="{&quot;origPos&quot;:null}" fill="#c0c0c0" stroke="none" stroke-width="0" stroke-linecap="butt"/><path d="M-4.50001,330.11522v-13h485v13z" data-paper-data="{&quot;origPos&quot;:null}" fill="#c0c0c0" stroke="#000000" stroke-width="0.5" stroke-linecap="butt"/><path d="M35.49999,337.11522v-10.90928h407v10.90928z" data-paper-data="{&quot;origPos&quot;:null}" fill="#c0c0c0" stroke="#000000" stroke-width="0.5" stroke-linecap="butt"/><path d="M422.49999,336.11522v9.54227h-356v-9.54227z" data-paper-data="{&quot;origPos&quot;:null}" fill="#c0c0c0" stroke="#000000" stroke-width="0.5" stroke-linecap="butt"/><path d="M218.853,350.77497h47" fill="none" stroke="#008aff" stroke-width="5" stroke-linecap="round"/><path d="M231.18633,358.1083l21.33333,0.33333" fill="none" stroke="#008aff" stroke-width="5" stroke-linecap="round"/><path d="M182.49999,116.10484v-14h113v14z" data-paper-data="{&quot;origPos&quot;:null}" fill="#c0c0c0" stroke="none" stroke-width="0" stroke-linecap="butt"/><path d="M-13.35422,235.38288l9.04183,-13.82453l111.66659,30.26845l-9.04183,13.82453z" data-paper-data="{&quot;origRot&quot;:0,&quot;origPos&quot;:null}" fill="#c0c0c0" stroke="none" stroke-width="0" stroke-linecap="butt"/><path d="M-33.35422,46.38288l9.04183,-13.82453l111.66659,30.26845l-9.04183,13.82453z" data-paper-data="{&quot;origRot&quot;:0,&quot;origPos&quot;:null}" fill="#c0c0c0" stroke="none" stroke-width="0" stroke-linecap="butt"/><path d="M-24.35422,138.38288l9.04183,-13.82453l111.66659,30.26845l-9.04183,13.82453z" data-paper-data="{&quot;origRot&quot;:0,&quot;origPos&quot;:null}" fill="#c0c0c0" stroke="none" stroke-width="0" stroke-linecap="butt"/><path d="M390.91233,265.65133l-9.26654,-13.82453l114.44187,-30.26845l9.26654,13.82453z" data-paper-data="{&quot;origRot&quot;:0,&quot;origPos&quot;:null,&quot;index&quot;:null}" fill="#c0c0c0" stroke="none" stroke-width="0" stroke-linecap="butt"/><path d="M401.91233,79.65133l-9.26654,-13.82453l114.44187,-30.26845l9.26654,13.82453z" data-paper-data="{&quot;origRot&quot;:0,&quot;origPos&quot;:null,&quot;index&quot;:null}" fill="#c0c0c0" stroke="none" stroke-width="0" stroke-linecap="butt"/><path d="M391.91233,175.65133l-9.26654,-13.82453l114.44187,-30.26845l9.26654,13.82453z" data-paper-data="{&quot;origRot&quot;:0,&quot;origPos&quot;:null,&quot;index&quot;:null}" fill="#c0c0c0" stroke="none" stroke-width="0" stroke-linecap="butt"/></g></g></svg>